<svg xmlns="http://www.w3.org/2000/svg" viewBox="0 0 512 511.23"><defs><style>.cls-1{fill:#fff;}</style></defs><title>Risorsa 1</title><g id="Livello_2" data-name="Livello 2"><g id="Capa_1" data-name="Capa 1"><path class="cls-1" d="M226.14,413.5H131.9a7.52,7.52,0,1,0,0,15H141v75.18a7.51,7.51,0,0,0,10.39,6.94l29.38-12.16,29.39,12.16a7.38,7.38,0,0,0,2.87.57,7.5,7.5,0,0,0,7.52-7.51V428.53h5.57a7.52,7.52,0,0,0,0-15Zm-20.6,79-21.87-9.05a7.54,7.54,0,0,0-5.75,0l-21.87,9.05V428.53h49.49v63.94Z"/><path class="cls-1" d="M161.53,292.73a7.52,7.52,0,0,0,0,15H268.32a7.52,7.52,0,0,0,0-15Z"/><path class="cls-1" d="M294.2,344.56a7.53,7.53,0,0,0,7.05.69l29.39-12.16L360,345.25a7.35,7.35,0,0,0,2.87.57,7.5,7.5,0,0,0,7.51-7.51V263.13h9.12a7.52,7.52,0,1,0,0-15H285.29a7.52,7.52,0,0,0,0,15h5.57v75.18a7.52,7.52,0,0,0,3.34,6.25Zm61.19-81.43v63.94L333.51,318a7.54,7.54,0,0,0-5.75,0l-21.87,9.05V263.13Z"/><path class="cls-1" d="M497,53.1a15,15,0,0,0,15-15V15A15,15,0,0,0,497,0H91a90.19,90.19,0,0,0-49.8,165.4h-26a15,15,0,0,0-15,15v23.16a15,15,0,0,0,15,15h14.6v74.23H15.16a15,15,0,0,0-15,15v23.15a15,15,0,0,0,15,15H40.42A90.19,90.19,0,0,0,90.21,511.23h28.27a7.52,7.52,0,0,0,0-15H90.21a75.19,75.19,0,0,1,0-150.37H268.32a7.52,7.52,0,0,0,0-15H90.21c-.88,0-1.75,0-2.63,0l-72.36,0-.06-23.1H129.51a7.52,7.52,0,0,0,0-15H44.79V218.5H420.43A38.48,38.48,0,0,1,447.69,230a36.38,36.38,0,0,1,10.64,26.28,37.29,37.29,0,0,1-37.11,36.47H393a7.51,7.51,0,0,0,0,15h28.27a52.37,52.37,0,0,0,52.13-51.24,51.31,51.31,0,0,0-15-37.07,53.6,53.6,0,0,0-38-16l-382.28.05a8.3,8.3,0,0,0-.87-.05,8.49,8.49,0,0,0-.88.05H15.22l-.06-23.1H119.23a7.52,7.52,0,1,0,0-15H91A75.19,75.19,0,0,1,91,15L497,15l.06,23.1H440.58a7.52,7.52,0,0,0,0,15h28v74.23H243.87a7.52,7.52,0,1,0,0,15l231.35-.06a6.27,6.27,0,0,0,1.73,0h20l.06,23.1H243.87a7.52,7.52,0,1,0,0,15H421.22a75.19,75.19,0,0,1,0,150.37H393a7.52,7.52,0,0,0,0,15h28.7l74.57-.05,0,23.1H91a53.61,53.61,0,0,0-38,16,51.31,51.31,0,0,0-15,37.08,52.38,52.38,0,0,0,52.13,51.24h28.27a7.52,7.52,0,0,0,0-15H90.21A37.29,37.29,0,0,1,53.1,421.66a36.39,36.39,0,0,1,10.65-26.28A38.45,38.45,0,0,1,91,383.9H466.64v74.23H243.11a7.52,7.52,0,0,0,0,15l253.11-.06,0,23.1H243.11a7.52,7.52,0,0,0,0,15H496.27a15,15,0,0,0,15-15V473.1a15,15,0,0,0-15-15h-14.6V383.9h14.6a15,15,0,0,0,15-15V345.77a15,15,0,0,0-15-15H471a90.14,90.14,0,0,0,0-150.37h26a15,15,0,0,0,15-15V142.3a15,15,0,0,0-15-15H483.6V53.1Z"/><path class="cls-1" d="M416.08,45.58a7.52,7.52,0,0,0-7.52-7.51H91.76a53.58,53.58,0,0,0-38,16A51.31,51.31,0,0,0,38.84,91.12,52.38,52.38,0,0,0,91,142.36h28.26a7.52,7.52,0,1,0,0-15H91A37.29,37.29,0,0,1,53.86,90.86,36.38,36.38,0,0,1,64.5,64.58,38.48,38.48,0,0,1,91.76,53.1h316.8A7.52,7.52,0,0,0,416.08,45.58Z"/><path class="cls-1" d="M145.11,179.16a7.53,7.53,0,0,0,7,.69l29.39-12.16,29.39,12.16a7.36,7.36,0,0,0,2.87.58,7.52,7.52,0,0,0,7.52-7.52V97.73h5.57a7.52,7.52,0,0,0,0-15H132.65a7.52,7.52,0,0,0,0,15h9.13v75.18a7.53,7.53,0,0,0,3.33,6.25ZM206.3,97.73v63.94l-21.87-9a7.54,7.54,0,0,0-5.75,0l-21.88,9V97.73Z"/></g></g></svg>