<svg xmlns="http://www.w3.org/2000/svg" viewBox="0 0 476.2 476.2"><defs><style>.cls-1{fill:#fff;}</style></defs><title>pen-white</title><g id="Livello_2" data-name="Livello 2"><g id="Capa_1" data-name="Capa 1"><path class="cls-1" d="M454.32,19.9C440.18,7.1,421.4,0,401.29,0a78.81,78.81,0,0,0-53,19.9,11.23,11.23,0,0,0,0,17,14.27,14.27,0,0,0,18.78,0,52.22,52.22,0,0,1,68.5,0c18.9,17.1,18.9,44.9,0,62a6.72,6.72,0,0,0-.88.9c-.33.3-.66.5-1,.8l-20.1,18.2L301.75,17.7a14.27,14.27,0,0,0-18.78,0l-171.25,155a11.23,11.23,0,0,0,0,17,14.06,14.06,0,0,0,9.39,3.5,14.29,14.29,0,0,0,9.4-3.5L292.36,43.1,307.5,56.8,47.64,292.1a11.32,11.32,0,0,0-3.86,8.5,11.72,11.72,0,0,0,3.86,8.5l8.4,7.6L19,350.1a11.33,11.33,0,0,0-3.87,8.5A11.73,11.73,0,0,0,19,367.1L35.49,382,3.89,410.6a11.23,11.23,0,0,0,0,17,14.08,14.08,0,0,0,9.4,3.5,14.28,14.28,0,0,0,9.39-3.5L54.27,399l16.47,14.9a13.83,13.83,0,0,0,9.39,3.5,14.36,14.36,0,0,0,9.39-3.5l37-33.5,8.39,7.6a14.08,14.08,0,0,0,9.4,3.5,14.28,14.28,0,0,0,9.39-3.5L452.45,117.6a6.72,6.72,0,0,0,.88-.9c.33-.3.66-.5,1-.8C483.49,89.3,483.49,46.3,454.32,19.9ZM80,388.4,47.09,358.6l27.62-25,16.47,14.9,16.46,14.9Zm64.19-25.9-8.4-7.6h0L110,331.5l-34.25-31L326.28,73.8l68.5,62Z"/><path class="cls-1" d="M439.19,452.2H13.29C6,452.2,0,457.6,0,464.2s6,12,13.26,12h425.9c7.29,0,13.26-5.4,13.26-12S446.48,452.2,439.19,452.2Z"/></g></g></svg>