<svg xmlns="http://www.w3.org/2000/svg" viewBox="0 0 476.2 476.2"><title>pen</title><g id="Livello_2" data-name="Livello 2"><g id="Livello_1-2" data-name="Livello 1"><g id="Capa_1" data-name="Capa 1"><path d="M454.32,19.9C440.18,7.1,421.4,0,401.29,0a78.8,78.8,0,0,0-53,19.9,11.24,11.24,0,0,0-1.16,15.84,11.55,11.55,0,0,0,1.16,1.16,14.27,14.27,0,0,0,18.78,0,52.22,52.22,0,0,1,68.5,0c18.9,17.1,18.9,44.9,0,62a7.48,7.48,0,0,0-.88.9c-.33.3-.66.5-1,.8l-20.1,18.2L301.75,17.7a14.27,14.27,0,0,0-18.78,0l-171.25,155a11.24,11.24,0,0,0-1.16,15.84,11.55,11.55,0,0,0,1.16,1.16,14,14,0,0,0,9.39,3.5,14.26,14.26,0,0,0,9.4-3.5L292.36,43.1,307.5,56.8,47.64,292.1a11.36,11.36,0,0,0-3.86,8.5,11.72,11.72,0,0,0,3.86,8.5l8.4,7.6L19,350.1a11.35,11.35,0,0,0-3.87,8.5A11.73,11.73,0,0,0,19,367.1L35.49,382,3.89,410.6a11.24,11.24,0,0,0-1.16,15.84,11.55,11.55,0,0,0,1.16,1.16,14.07,14.07,0,0,0,9.4,3.5,14.21,14.21,0,0,0,9.39-3.5L54.27,399l16.47,14.9a13.81,13.81,0,0,0,9.39,3.5,14.34,14.34,0,0,0,9.39-3.5l37-33.5,8.39,7.6a14.07,14.07,0,0,0,9.4,3.5,14.21,14.21,0,0,0,9.39-3.5L452.45,117.6a6.24,6.24,0,0,0,.88-.9c.33-.3.66-.5,1-.8C483.49,89.3,483.49,46.3,454.32,19.9ZM80,388.4,47.09,358.6l27.62-25,16.47,14.9,16.46,14.9Zm64.19-25.9-8.4-7.6h0L110,331.5l-34.25-31L326.28,73.8l68.5,62Z"/><path d="M439.19,452.2H13.29C6,452.2,0,457.6,0,464.2s6,12,13.26,12h425.9c7.29,0,13.26-5.4,13.26-12S446.48,452.2,439.19,452.2Z"/></g></g></g></svg>