<svg xmlns="http://www.w3.org/2000/svg" viewBox="0 0 188.74 219"><title>Risorsa 5</title><g id="Livello_2" data-name="Livello 2"><g id="Livello_1-2" data-name="Livello 1"><path d="M188.74,178l-.1.58a48.5,48.5,0,0,1-81.46,26.86l-.19-.18a66.51,66.51,0,0,1-80.8.13l-.05.05A66.77,66.77,0,0,1,12.26,191l0,0a66.7,66.7,0,0,1-7.42-13.48c-.32-.79-.62-1.58-.91-2.38s-.56-1.6-.82-2.41c-.11-.36-.23-.72-.33-1.08a1.71,1.71,0,0,1-.09-.3c-.11-.35-.21-.71-.31-1.07-.23-.82-.44-1.64-.63-2.47s-.38-1.66-.54-2.5-.31-1.68-.44-2.53c0-.27-.09-.55-.12-.83-.1-.61-.18-1.23-.24-1.85-.14-1.24-.25-2.48-.32-3.72l-.06-1.3c0-.43,0-.86,0-1.3s0-.86,0-1.3c0-.8,0-1.6,0-2.4A66.85,66.85,0,0,1,38.29,92.26l.71-.33V115l-.2.15A46.5,46.5,0,1,0,113,152.5v-86A46.5,46.5,0,0,0,20,66l.35.36L0,86.19V66.5a66.5,66.5,0,0,1,133,0v86a66,66,0,0,1-12.16,38.34,2.09,2.09,0,0,0,.22.2,28.33,28.33,0,0,0,19.75,8,28.64,28.64,0,0,0,27.41-20.64l.1-.36Z"/></g></g></svg>