<svg xmlns="http://www.w3.org/2000/svg" viewBox="0 0 411.14 476.99"><defs><style>.cls-1,.cls-10,.cls-11,.cls-12,.cls-14,.cls-15,.cls-2,.cls-3,.cls-4,.cls-5,.cls-6,.cls-7,.cls-8,.cls-9{fill:none;stroke:#1d1d1b;stroke-miterlimit:10;}.cls-2{stroke-dasharray:12.41 12.41;}.cls-3{stroke-dasharray:7.76 7.76;}.cls-4{stroke-dasharray:11.23 11.23;}.cls-5{stroke-dasharray:12.72 12.72;}.cls-6{stroke-dasharray:11.65 11.65;}.cls-7{stroke-dasharray:6.16 6.16;}.cls-8{stroke-dasharray:13.54 13.54;}.cls-9{stroke-dasharray:11.99 11.99;}.cls-10{stroke-dasharray:14.28 14.28;}.cls-11{stroke-dasharray:11.86 11.86;}.cls-12{stroke-dasharray:11.96 11.96;}.cls-13{fill:#8b8b8c;}.cls-14{stroke-dasharray:11.92 11.92;}.cls-15{stroke-dasharray:12;}.cls-16{fill:#1d1d1b;}</style></defs><title>1</title><g id="Livello_2" data-name="Livello 2"><g id="Livello_3" data-name="Livello 3"><path class="cls-1" d="M144.67,439c-1.2,1.61-2.44,3.19-3.71,4.72"/><path class="cls-2" d="M132.49,452.78c-13.17,12.53-29.07,20.92-46.28,23.13-38.59,5-71.61-22.56-82.18-64.83"/><path class="cls-1" d="M2.69,405q-.56-2.92-1-5.92l6-.67"/><line class="cls-3" x1="15.38" y1="397.58" x2="26.94" y2="396.28"/><path class="cls-1" d="M30.8,395.84l6-.67q.72,3,1.67,5.77"/><path class="cls-4" d="M43,411.19c9.19,16.32,25.16,25.92,43.22,23.73,10.42-1.26,20.07-6.28,28.09-13.83"/><path class="cls-1" d="M118.21,417.05c1.32-1.48,2.58-3,3.78-4.66"/><path class="cls-1" d="M144.66,439c1.54,1.29,3.12,2.52,4.72,3.71"/><path class="cls-5" d="M160.08,449.58a86.09,86.09,0,0,0,53,10c21.59-2.79,41.57-13.16,58.3-28.74"/><path class="cls-1" d="M275.92,426.4Q278,424.26,280,422l.19.29q1.89,2.15,3.9,4.09"/><path class="cls-6" d="M293.11,433.79a58.68,58.68,0,0,0,41.34,10.13c34.46-4.44,63.21-37.55,72.34-78.94"/><path class="cls-1" d="M407.92,359.28q.51-3,.89-5.94l-6,.67"/><line class="cls-7" x1="396.73" y1="354.7" x2="387.54" y2="355.73"/><path class="cls-1" d="M384.48,356.08l-6,.67c-.43,2-.92,3.91-1.49,5.81"/><path class="cls-8" d="M372,375.13c-8.26,16.22-22,27.85-37.57,29.74a35.38,35.38,0,0,1-23.53-5.39"/><path class="cls-1" d="M305.53,395.38a45.67,45.67,0,0,1-4-4.1l-.21-.17q1.4-2.66,2.7-5.37"/><path class="cls-9" d="M308.81,374.76a177.55,177.55,0,0,0,12.35-65.15V132.35C321.16,57.23,273.33-1.8,213.07.57,151.35,3,100.22,68.59,100.22,147v27.82"/><polyline class="cls-1" points="100.22 180.83 100.22 186.83 103.93 182.12"/><line class="cls-10" x1="112.74" y1="170.89" x2="125.97" y2="154.04"/><line class="cls-1" x1="130.37" y1="148.43" x2="134.08" y2="143.71"/><path class="cls-1" d="M133.22,144.83c0-2,0-4,.14-6"/><path class="cls-11" d="M134.47,127c6.7-47.36,39.58-84.62,78.6-86.46,43.06-2,77.44,40,77.44,93.82V312.72c0,53.83-34.38,101.63-77.44,106.84-43.8,5.3-79.85-35.33-79.85-90.83,0-33.07,12.85-63.57,32.57-83.54v-34.9"/><path class="cls-1" d="M165.79,204.38v-6q-2.49,1.65-4.91,3.44"/><path class="cls-12" d="M151.62,209.38c-30.83,27.72-51.4,73.08-51.4,122.71,0,26.2,5.76,50.1,15.76,70"/><path class="cls-1" d="M118.79,407.36q1.48,2.64,3.06,5.16"/><path class="cls-13" d="M215.12,286.82v1c13.22,0,23.58,13.21,23.58,30.07,0,18-11.55,33.87-25.74,35.41a20.78,20.78,0,0,1-2.22.12c-6.36,0-12.28-3-16.66-8.52s-6.92-13.26-6.92-21.56c0-18.17,11.67-34.06,26-35.43.65-.06,1.31-.09,2-.09v-1m0,0a20.18,20.18,0,0,0-2,.1c-14.83,1.41-26.91,17.72-26.91,36.42,0,17.72,10.84,31.08,24.58,31.08a20.34,20.34,0,0,0,2.33-.13c14.74-1.6,26.63-17.89,26.63-36.4,0-17.64-10.8-31.07-24.59-31.07Z"/><path class="cls-14" d="M321.16,132.35c0,75.13-47.83,140.51-108.09,146.14-61.72,5.78-112.85-53-112.85-131.47S151.35,3,213.07.57C273.33-1.8,321.16,57.23,321.16,132.35Z"/><path class="cls-15" d="M410.64,336.94c0,53.66-34.1,101.56-76.83,107.06-43.46,5.61-79.25-34.66-79.25-90s35.79-103.44,79.25-107.33C376.54,242.82,410.64,283.27,410.64,336.94Z"/><path class="cls-15" d="M380,340.28c0,32.62-20.82,61.59-46.74,64.73-26.2,3.17-47.64-21.18-47.64-54.43s21.44-62.28,47.64-64.82C359.2,283.23,380,307.66,380,340.28Z"/><path class="cls-15" d="M169.2,363.29c0,56.29-36.83,106.68-83,112.62C39.22,482,.5,439.84.5,381.7S39.22,273,86.21,268.78C132.37,264.65,169.2,307,169.2,363.29Z"/><path class="cls-15" d="M136.66,366.84c0,34.23-22.47,64.69-50.45,68.08-28.29,3.42-51.45-22.06-51.45-57s23.16-65.43,51.45-68.18C114.19,307.06,136.66,332.62,136.66,366.84Z"/><path class="cls-15" d="M290.51,134.39c0,53.83-34.38,100.41-77.44,104.1-43.8,3.75-79.85-38.15-79.85-93.66S169.27,42.64,213.07,40.57C256.13,38.55,290.51,80.56,290.51,134.39Z"/><path class="cls-16" d="M239.7,317.89c0,18.51-11.89,34.8-26.63,36.4s-26.91-12.25-26.91-31,12.08-35,26.91-36.42S239.7,299.38,239.7,317.89Z"/><path class="cls-16" d="M213.07,178.48c-61.71,4.57-112.85,72.65-112.85,152s51.14,137,112.85,129.1c60.26-7.77,108.09-75.52,108.09-151.51S273.33,174,213.07,178.48Zm0,241.08c-43.8,5.3-79.85-35.32-79.85-90.83s36.05-103.47,79.85-107.09c43.07-3.55,77.44,37.25,77.44,91.08S256.14,414.35,213.07,419.56Z"/></g></g></svg>