<svg id="Livello_1" data-name="Livello 1" xmlns="http://www.w3.org/2000/svg" viewBox="0 0 1920 1080"><defs><style>.cls-1{fill:none;}.cls-2{fill:#fff;}</style></defs><title>o2</title><rect width="1920" height="1080"/><rect class="cls-1" x="1618.11" y="828.66" width="1.52" height="1.57"/><path class="cls-2" d="M1618.87,830.23a.79.79,0,0,0,0-1.57.79.79,0,0,0,0,1.57Z"/><rect class="cls-1" x="1632.3" y="813.31" width="1.17" height="1.22"/><path class="cls-2" d="M1632.89,814.53a.61.61,0,0,0,0-1.22.61.61,0,0,0,0,1.22Z"/><rect class="cls-1" x="1604.02" y="823.28" width="1.56" height="1.61"/><path class="cls-2" d="M1604.8,824.89a.81.81,0,0,0,0-1.61.81.81,0,0,0,0,1.61Z"/><rect class="cls-1" x="1523.69" y="806.68" width="0.58" height="0.6"/><path class="cls-2" d="M1524,807.28a.3.3,0,0,0,0-.6.3.3,0,0,0,0,.6Z"/><rect class="cls-1" x="1487.78" y="828.04" width="1.57" height="1.62"/><path class="cls-2" d="M1488.56,829.67a.82.82,0,0,0,0-1.63.82.82,0,0,0,0,1.63Z"/><rect class="cls-1" x="1436.28" y="810.37" width="0.68" height="0.7"/><path class="cls-2" d="M1436.62,811.07a.35.35,0,0,0,0-.7.35.35,0,0,0,0,.7Z"/><rect class="cls-1" x="1384.4" y="823.5" width="1.07" height="1.11"/><path class="cls-2" d="M1384.93,824.6a.55.55,0,0,0,0-1.1.55.55,0,0,0,0,1.1Z"/><rect class="cls-1" x="1337.27" y="800.9" width="1.22" height="1.26"/><path class="cls-2" d="M1337.88,802.16a.63.63,0,0,0,0-1.26.63.63,0,0,0,0,1.26Z"/><rect class="cls-1" x="1261.88" y="795.38" width="1.36" height="1.41"/><path class="cls-2" d="M1262.56,796.79a.71.71,0,0,0,0-1.41.71.71,0,0,0,0,1.41Z"/><rect class="cls-1" x="1193.13" y="795.59" width="1.01" height="1.05"/><path class="cls-2" d="M1193.64,796.64a.53.53,0,0,0,0-1,.53.53,0,0,0,0,1Z"/><rect class="cls-1" x="1152.43" y="803.42" width="0.82" height="0.85"/><path class="cls-2" d="M1152.84,804.27a.43.43,0,0,0,0-.85.43.43,0,0,0,0,.85Z"/><rect class="cls-1" x="1067.66" y="791.29" width="0.86" height="0.89"/><path class="cls-2" d="M1068.09,792.17a.44.44,0,0,0,0-.88.44.44,0,0,0,0,.88Z"/><rect class="cls-1" x="1017.62" y="753.51" width="1.28" height="1.32"/><path class="cls-2" d="M1018.26,754.84a.67.67,0,0,0,0-1.33.67.67,0,0,0,0,1.33Z"/><rect class="cls-1" x="961.56" y="760.67" width="1.06" height="1.09"/><path class="cls-2" d="M962.09,761.76a.55.55,0,0,0,0-1.09.55.55,0,0,0,0,1.09Z"/><rect class="cls-1" x="932.55" y="741.72" width="0.95" height="0.99"/><path class="cls-2" d="M933,742.7a.49.49,0,0,0,0-1,.49.49,0,0,0,0,1Z"/><rect class="cls-1" x="880.96" y="725.81" width="0.76" height="0.79"/><path class="cls-2" d="M881.35,726.6a.4.4,0,0,0,0-.79.4.4,0,0,0,0,.79Z"/><rect class="cls-1" x="842.24" y="716.94" width="1.23" height="1.28"/><path class="cls-2" d="M842.85,718.22a.64.64,0,0,0,0-1.28.64.64,0,0,0,0,1.28Z"/><rect class="cls-1" x="786.61" y="709.75" width="0.93" height="0.96"/><path class="cls-2" d="M787.08,710.71a.48.48,0,0,0,0-1,.48.48,0,0,0,0,1Z"/><rect class="cls-1" x="744.84" y="718.11" width="0.93" height="0.96"/><path class="cls-2" d="M745.3,719.07a.48.48,0,0,0,0-1,.48.48,0,0,0,0,1Z"/><rect class="cls-1" x="676.62" y="691.04" width="1.47" height="1.53"/><path class="cls-2" d="M677.35,692.57a.77.77,0,0,0,0-1.53.77.77,0,0,0,0,1.53Z"/><rect class="cls-1" x="639.7" y="671.62" width="1.58" height="1.64"/><path class="cls-2" d="M640.49,673.26a.82.82,0,0,0,0-1.64.82.82,0,0,0,0,1.64Z"/><rect class="cls-1" x="601.05" y="652.04" width="1.51" height="1.56"/><path class="cls-2" d="M601.81,653.6a.78.78,0,0,0,0-1.56.78.78,0,0,0,0,1.56Z"/><rect class="cls-1" x="544.64" y="632.89" width="0.63" height="0.65"/><path class="cls-2" d="M545,633.54a.33.33,0,0,0,0-.65.33.33,0,0,0,0,.65Z"/><rect class="cls-1" x="485.25" y="622.02" width="1.03" height="1.06"/><path class="cls-2" d="M485.76,623.08a.53.53,0,0,0,0-1.06.53.53,0,0,0,0,1.06Z"/><rect class="cls-1" x="450.08" y="627.25" width="1" height="1.03"/><path class="cls-2" d="M450.58,628.29a.52.52,0,0,0,0-1,.52.52,0,0,0,0,1Z"/><rect class="cls-1" x="369.68" y="608.42" width="1.32" height="1.36"/><path class="cls-2" d="M370.34,609.78a.68.68,0,0,0,0-1.36.68.68,0,0,0,0,1.36Z"/><rect class="cls-1" x="326.82" y="600.53" width="0.8" height="0.83"/><path class="cls-2" d="M327.22,601.36a.42.42,0,0,0,0-.83.42.42,0,0,0,0,.83Z"/><rect class="cls-1" x="242" y="583.86" width="0.84" height="0.87"/><path class="cls-2" d="M242.42,584.73a.44.44,0,0,0,0-.87.44.44,0,0,0,0,.87Z"/><rect class="cls-1" x="172.11" y="583.59" width="1.29" height="1.33"/><path class="cls-2" d="M172.75,584.92a.67.67,0,0,0,0-1.33.67.67,0,0,0,0,1.33Z"/><rect class="cls-1" x="71.42" y="614.63" width="1.41" height="1.45"/><path class="cls-2" d="M72.12,616.08a.73.73,0,0,0,0-1.45.73.73,0,0,0,0,1.45Z"/><rect class="cls-1" x="40.16" y="949.69" width="0.96" height="1"/><path class="cls-2" d="M40.64,950.68a.5.5,0,0,0,0-1,.5.5,0,0,0,0,1Z"/><rect class="cls-1" x="147.05" y="984.56" width="0.61" height="0.63"/><path class="cls-2" d="M147.36,985.19a.32.32,0,0,0,0-.63.32.32,0,0,0,0,.63Z"/><rect class="cls-1" x="205.74" y="961.69" width="0.65" height="0.67"/><path class="cls-2" d="M206.06,962.37a.34.34,0,0,0,0-.68.34.34,0,0,0,0,.68Z"/><rect class="cls-1" x="257.73" y="956.02" width="1.05" height="1.08"/><path class="cls-2" d="M258.26,957.11a.55.55,0,0,0,0-1.09.55.55,0,0,0,0,1.09Z"/><rect class="cls-1" x="337.1" y="947.96" width="0.59" height="0.61"/><path class="cls-2" d="M337.39,948.57a.31.31,0,0,0,0-.61.31.31,0,0,0,0,.61Z"/><rect class="cls-1" x="408.68" y="927.31" width="1.01" height="1.05"/><path class="cls-2" d="M409.19,928.35a.52.52,0,0,0,0-1,.52.52,0,0,0,0,1Z"/><rect class="cls-1" x="438.46" y="915.58" width="1.2" height="1.24"/><path class="cls-2" d="M439.06,916.82a.62.62,0,0,0,0-1.24.62.62,0,0,0,0,1.24Z"/><rect class="cls-1" x="521.87" y="909.77" width="0.97" height="1"/><path class="cls-2" d="M522.35,910.77a.5.5,0,0,0,0-1,.5.5,0,0,0,0,1Z"/><rect class="cls-1" x="560.84" y="903.2" width="0.91" height="0.95"/><path class="cls-2" d="M561.3,904.15a.48.48,0,0,0,0-.95.48.48,0,0,0,0,.95Z"/><rect class="cls-1" x="593.71" y="888.58" width="0.77" height="0.8"/><path class="cls-2" d="M594.09,889.38a.4.4,0,0,0,0-.8.4.4,0,0,0,0,.8Z"/><rect class="cls-1" x="635.47" y="906.39" width="0.84" height="0.87"/><path class="cls-2" d="M635.89,907.26a.44.44,0,0,0,0-.87.44.44,0,0,0,0,.87Z"/><rect class="cls-1" x="698.39" y="879.16" width="0.94" height="0.97"/><path class="cls-2" d="M698.86,880.13a.49.49,0,0,0,0-1,.49.49,0,0,0,0,1Z"/><rect class="cls-1" x="752.56" y="895.01" width="0.73" height="0.75"/><path class="cls-2" d="M752.92,895.77a.38.38,0,0,0,0-.76.38.38,0,0,0,0,.76Z"/><rect class="cls-1" x="795.07" y="899.16" width="1.21" height="1.25"/><path class="cls-2" d="M795.68,900.41a.63.63,0,0,0,0-1.25.63.63,0,0,0,0,1.25Z"/><rect class="cls-1" x="825.11" y="881.54" width="1.41" height="1.46"/><path class="cls-2" d="M825.82,883a.74.74,0,0,0,0-1.47.74.74,0,0,0,0,1.47Z"/><rect class="cls-1" x="883.28" y="901.36" width="1.04" height="1.08"/><path class="cls-2" d="M883.8,902.44a.54.54,0,0,0,0-1.08.54.54,0,0,0,0,1.08Z"/><rect class="cls-1" x="952.61" y="902.75" width="1.07" height="1.11"/><path class="cls-2" d="M953.14,903.86a.56.56,0,0,0,0-1.11.56.56,0,0,0,0,1.11Z"/><rect class="cls-1" x="1008.62" y="901.9" width="1.65" height="1.7"/><path class="cls-2" d="M1009.45,903.61a.86.86,0,0,0,0-1.71.86.86,0,0,0,0,1.71Z"/><rect class="cls-1" x="1061.01" y="928.19" width="1.1" height="1.14"/><path class="cls-2" d="M1061.56,929.33a.57.57,0,0,0,0-1.14.57.57,0,0,0,0,1.14Z"/><rect class="cls-1" x="1129.72" y="931.75" width="1.08" height="1.12"/><path class="cls-2" d="M1130.26,932.86a.56.56,0,0,0,0-1.11.56.56,0,0,0,0,1.11Z"/><rect class="cls-1" x="1162.38" y="924.22" width="0.75" height="0.78"/><path class="cls-2" d="M1162.75,925a.39.39,0,0,0,0-.78.39.39,0,0,0,0,.78Z"/><rect class="cls-1" x="1218.74" y="949.59" width="0.88" height="0.91"/><path class="cls-2" d="M1219.18,950.5a.46.46,0,0,0,0-.91.46.46,0,0,0,0,.91Z"/><rect class="cls-1" x="1302.59" y="957.69" width="1.35" height="1.4"/><path class="cls-2" d="M1303.27,959.09a.7.7,0,0,0,0-1.4.7.7,0,0,0,0,1.4Z"/><rect class="cls-1" x="1330.63" y="979.87" width="1.61" height="1.67"/><path class="cls-2" d="M1331.44,981.54a.84.84,0,0,0,0-1.67.84.84,0,0,0,0,1.67Z"/><rect class="cls-1" x="1397.48" y="964.79" width="0.74" height="0.76"/><path class="cls-2" d="M1397.85,965.55a.38.38,0,0,0,0-.76.38.38,0,0,0,0,.76Z"/><rect class="cls-1" x="1467.1" y="994.85" width="1.59" height="1.64"/><path class="cls-2" d="M1467.9,996.49a.82.82,0,0,0,0-1.64.82.82,0,0,0,0,1.64Z"/><rect class="cls-1" x="1548.71" y="978.19" width="1.57" height="1.62"/><path class="cls-2" d="M1549.49,979.81a.81.81,0,0,0,0-1.62.81.81,0,0,0,0,1.62Z"/><rect class="cls-1" x="1642.39" y="938.28" width="0.72" height="0.74"/><path class="cls-2" d="M1642.75,939a.38.38,0,0,0,0-.75.38.38,0,0,0,0,.75Z"/><rect class="cls-1" x="1694.56" y="858.4" width="1.73" height="1.79"/><path class="cls-2" d="M1695.43,860.19a.9.9,0,0,0,0-1.79.9.9,0,0,0,0,1.79Z"/><rect class="cls-1" x="1691.41" y="761.91" width="1.29" height="1.33"/><path class="cls-2" d="M1692.06,763.24a.67.67,0,0,0,0-1.33.67.67,0,0,0,0,1.33Z"/><rect class="cls-1" x="1573.78" y="659.41" width="1.1" height="1.14"/><path class="cls-2" d="M1574.33,660.55a.57.57,0,0,0,0-1.14.57.57,0,0,0,0,1.14Z"/><rect class="cls-1" x="1514.65" y="661.06" width="0.6" height="0.62"/><path class="cls-2" d="M1515,661.68a.31.31,0,0,0,0-.62.31.31,0,0,0,0,.62Z"/><rect class="cls-1" x="1425.91" y="635.03" width="0.79" height="0.82"/><path class="cls-2" d="M1426.3,635.85a.41.41,0,0,0,0-.82.41.41,0,0,0,0,.82Z"/><rect class="cls-1" x="1368.64" y="631.5" width="1.36" height="1.41"/><path class="cls-2" d="M1369.32,632.91a.71.71,0,0,0,0-1.41.71.71,0,0,0,0,1.41Z"/><rect class="cls-1" x="1305.17" y="646.49" width="0.61" height="0.63"/><path class="cls-2" d="M1305.47,647.12a.32.32,0,0,0,0-.63.32.32,0,0,0,0,.63Z"/><rect class="cls-1" x="1277.93" y="620.59" width="0.95" height="0.98"/><path class="cls-2" d="M1278.41,621.58a.5.5,0,0,0,0-1,.5.5,0,0,0,0,1Z"/><rect class="cls-1" x="1253.6" y="606.53" width="1.09" height="1.13"/><path class="cls-2" d="M1254.14,607.66a.57.57,0,0,0,0-1.13.57.57,0,0,0,0,1.13Z"/><rect class="cls-1" x="1226.43" y="597.35" width="1.2" height="1.24"/><path class="cls-2" d="M1227,598.59a.62.62,0,0,0,0-1.24.62.62,0,0,0,0,1.24Z"/><rect class="cls-1" x="1233.5" y="535.61" width="1.54" height="1.59"/><path class="cls-2" d="M1234.27,537.2a.8.8,0,0,0,0-1.59.8.8,0,0,0,0,1.59Z"/><rect class="cls-1" x="1185.78" y="489.67" width="1.33" height="1.38"/><path class="cls-2" d="M1186.45,491.05a.69.69,0,0,0,0-1.38.69.69,0,0,0,0,1.38Z"/><rect class="cls-1" x="1077.36" y="462.42" width="1.73" height="1.79"/><path class="cls-2" d="M1078.23,464.22a.9.9,0,0,0,0-1.8.9.9,0,0,0,0,1.8Z"/><rect class="cls-1" x="1016.46" y="476.17" width="0.67" height="0.69"/><path class="cls-2" d="M1016.8,476.86a.35.35,0,0,0,0-.69.35.35,0,0,0,0,.69Z"/><rect class="cls-1" x="937.93" y="478.7" width="1.33" height="1.38"/><path class="cls-2" d="M938.6,480.07a.69.69,0,0,0,0-1.37.69.69,0,0,0,0,1.37Z"/><rect class="cls-1" x="910.12" y="511.79" width="1.66" height="1.71"/><path class="cls-2" d="M911,513.51a.86.86,0,0,0,0-1.72.86.86,0,0,0,0,1.72Z"/><rect class="cls-1" x="862.45" y="503.2" width="1.18" height="1.22"/><path class="cls-2" d="M863,504.42a.61.61,0,0,0,0-1.22.61.61,0,0,0,0,1.22Z"/><rect class="cls-1" x="816.28" y="529.1" width="1.13" height="1.17"/><path class="cls-2" d="M816.84,530.27a.59.59,0,0,0,0-1.17.59.59,0,0,0,0,1.17Z"/><rect class="cls-1" x="752.76" y="550.89" width="1.15" height="1.19"/><path class="cls-2" d="M753.34,552.08a.6.6,0,0,0,0-1.19.6.6,0,0,0,0,1.19Z"/><rect class="cls-1" x="868.02" y="557.46" width="0.6" height="0.62"/><path class="cls-2" d="M868.32,558.07a.31.31,0,0,0,0-.61.31.31,0,0,0,0,.61Z"/><rect class="cls-1" x="876.81" y="492.44" width="1.43" height="1.48"/><path class="cls-2" d="M877.52,493.93a.75.75,0,0,0,0-1.49.75.75,0,0,0,0,1.49Z"/><rect class="cls-1" x="755.93" y="438.17" width="1.41" height="1.45"/><path class="cls-2" d="M756.63,439.63a.73.73,0,0,0,0-1.46.73.73,0,0,0,0,1.46Z"/><rect class="cls-1" x="684.73" y="464.28" width="0.95" height="0.99"/><path class="cls-2" d="M685.2,465.26a.49.49,0,0,0,0-1,.49.49,0,0,0,0,1Z"/><rect class="cls-1" x="649.13" y="493.89" width="1.4" height="1.45"/><path class="cls-2" d="M649.84,495.35a.73.73,0,0,0,0-1.46.73.73,0,0,0,0,1.46Z"/><rect class="cls-1" x="598.35" y="523.28" width="1.01" height="1.05"/><path class="cls-2" d="M598.86,524.33a.53.53,0,0,0,0-1.05.53.53,0,0,0,0,1.05Z"/><rect class="cls-1" x="554.56" y="550.62" width="1.73" height="1.79"/><path class="cls-2" d="M555.43,552.41a.9.9,0,0,0,0-1.79.9.9,0,0,0,0,1.79Z"/><rect class="cls-1" x="518.19" y="587.27" width="1.11" height="1.15"/><path class="cls-2" d="M518.75,588.43a.58.58,0,0,0,0-1.16.58.58,0,0,0,0,1.16Z"/><rect class="cls-1" x="467.82" y="615.23" width="0.78" height="0.81"/><path class="cls-2" d="M468.21,616a.41.41,0,0,0,0-.81.41.41,0,0,0,0,.81Z"/><rect class="cls-1" x="397.42" y="660.89" width="0.83" height="0.86"/><path class="cls-2" d="M397.83,661.75a.43.43,0,0,0,0-.86.43.43,0,0,0,0,.86Z"/><rect class="cls-1" x="355.79" y="675.33" width="1.71" height="1.77"/><path class="cls-2" d="M356.64,677.1a.89.89,0,0,0,0-1.77.89.89,0,0,0,0,1.77Z"/><rect class="cls-1" x="298.59" y="686.94" width="1.3" height="1.34"/><path class="cls-2" d="M299.24,688.28a.67.67,0,0,0,0-1.34.67.67,0,0,0,0,1.34Z"/><rect class="cls-1" x="249.85" y="750.97" width="0.69" height="0.71"/><path class="cls-2" d="M250.19,751.69a.36.36,0,0,0,0-.72.36.36,0,0,0,0,.72Z"/><rect class="cls-1" x="216.66" y="762.65" width="0.94" height="0.98"/><path class="cls-2" d="M217.13,763.63a.49.49,0,0,0,0-1,.49.49,0,0,0,0,1Z"/><rect class="cls-1" x="249.83" y="780.5" width="1.44" height="1.49"/><path class="cls-2" d="M250.55,782a.75.75,0,0,0,0-1.49.75.75,0,0,0,0,1.49Z"/><rect class="cls-1" x="250.52" y="754.95" width="1.26" height="1.3"/><path class="cls-2" d="M251.15,756.25a.65.65,0,0,0,0-1.3.65.65,0,0,0,0,1.3Z"/><rect class="cls-1" x="247.8" y="707.19" width="1.32" height="1.37"/><path class="cls-2" d="M248.46,708.56a.69.69,0,0,0,0-1.37.69.69,0,0,0,0,1.37Z"/><rect class="cls-1" x="248.09" y="641.53" width="1.13" height="1.17"/><path class="cls-2" d="M248.66,642.71a.59.59,0,0,0,0-1.18.59.59,0,0,0,0,1.18Z"/><rect class="cls-1" x="239.61" y="571.21" width="1.62" height="1.67"/><path class="cls-2" d="M240.42,572.89a.84.84,0,0,0,0-1.68.84.84,0,0,0,0,1.68Z"/><rect class="cls-1" x="249.93" y="514.38" width="0.7" height="0.73"/><path class="cls-2" d="M250.28,515.11a.37.37,0,0,0,0-.73.37.37,0,0,0,0,.73Z"/><rect class="cls-1" x="259.93" y="464.82" width="1.73" height="1.79"/><path class="cls-2" d="M260.8,466.61a.9.9,0,0,0,0-1.79.9.9,0,0,0,0,1.79Z"/><rect class="cls-1" x="252.36" y="466.28" width="0.68" height="0.71"/><path class="cls-2" d="M252.7,467a.35.35,0,0,0,0-.7.35.35,0,0,0,0,.7Z"/><rect class="cls-1" x="283.73" y="454.75" width="1.7" height="1.76"/><path class="cls-2" d="M284.58,456.51a.88.88,0,0,0,0-1.76.88.88,0,0,0,0,1.76Z"/><rect class="cls-1" x="336.49" y="468.17" width="1.17" height="1.21"/><path class="cls-2" d="M337.08,469.39a.61.61,0,0,0,0-1.22.61.61,0,0,0,0,1.22Z"/><rect class="cls-1" x="406.74" y="473.58" width="0.72" height="0.75"/><path class="cls-2" d="M407.1,474.32a.37.37,0,0,0,0-.74.37.37,0,0,0,0,.74Z"/><rect class="cls-1" x="464.31" y="479.14" width="1.16" height="1.2"/><path class="cls-2" d="M464.89,480.35a.61.61,0,0,0,0-1.21.61.61,0,0,0,0,1.21Z"/><rect class="cls-1" x="492.12" y="501.71" width="0.72" height="0.75"/><path class="cls-2" d="M492.48,502.46a.38.38,0,0,0,0-.75.38.38,0,0,0,0,.75Z"/><rect class="cls-1" x="548.17" y="516.4" width="0.68" height="0.71"/><path class="cls-2" d="M548.51,517.1a.35.35,0,0,0,0-.7.35.35,0,0,0,0,.7Z"/><rect class="cls-1" x="625.75" y="515.9" width="1.11" height="1.15"/><path class="cls-2" d="M626.31,517.05a.58.58,0,0,0,0-1.15.58.58,0,0,0,0,1.15Z"/><rect class="cls-1" x="695.76" y="565.14" width="1.58" height="1.64"/><path class="cls-2" d="M696.55,566.78a.82.82,0,0,0,0-1.64.82.82,0,0,0,0,1.64Z"/><rect class="cls-1" x="764.09" y="580.38" width="0.86" height="0.89"/><path class="cls-2" d="M764.52,581.27a.45.45,0,0,0,0-.89.45.45,0,0,0,0,.89Z"/><rect class="cls-1" x="799.83" y="574.35" width="1.22" height="1.26"/><path class="cls-2" d="M800.44,575.62a.64.64,0,0,0,0-1.27.64.64,0,0,0,0,1.27Z"/><rect class="cls-1" x="866.14" y="588.51" width="1.66" height="1.72"/><path class="cls-2" d="M867,590.23a.86.86,0,0,0,0-1.72.86.86,0,0,0,0,1.72Z"/><rect class="cls-1" x="935.08" y="596.31" width="1.25" height="1.3"/><path class="cls-2" d="M935.71,597.61a.65.65,0,0,0,0-1.3.65.65,0,0,0,0,1.3Z"/><rect class="cls-1" x="975.11" y="601.78" width="1.64" height="1.7"/><path class="cls-2" d="M975.93,603.47a.85.85,0,0,0,0-1.69.85.85,0,0,0,0,1.69Z"/><rect class="cls-1" x="1016.55" y="611.72" width="0.95" height="0.99"/><path class="cls-2" d="M1017,612.71a.5.5,0,0,0,0-1,.5.5,0,0,0,0,1Z"/><rect class="cls-1" x="1055.21" y="631.39" width="1.02" height="1.05"/><path class="cls-2" d="M1055.72,632.44a.53.53,0,0,0,0-1.05.53.53,0,0,0,0,1.05Z"/><rect class="cls-1" x="1125.17" y="630.97" width="1.01" height="1.05"/><path class="cls-2" d="M1125.68,632a.53.53,0,0,0,0-1,.53.53,0,0,0,0,1Z"/><rect class="cls-1" x="1175.8" y="626.33" width="1.19" height="1.23"/><path class="cls-2" d="M1176.39,627.56a.62.62,0,0,0,0-1.23.62.62,0,0,0,0,1.23Z"/><rect class="cls-1" x="1254.32" y="623.88" width="1.46" height="1.51"/><path class="cls-2" d="M1255,625.39a.76.76,0,0,0,0-1.51.76.76,0,0,0,0,1.51Z"/><rect class="cls-1" x="1294.67" y="621.18" width="0.67" height="0.7"/><path class="cls-2" d="M1295,621.88a.35.35,0,0,0,0-.7.35.35,0,0,0,0,.7Z"/><rect class="cls-1" x="1385.78" y="618.08" width="1.66" height="1.72"/><path class="cls-2" d="M1386.61,619.8a.86.86,0,0,0,0-1.72.86.86,0,0,0,0,1.72Z"/><rect class="cls-1" x="1428.88" y="638.78" width="0.63" height="0.66"/><path class="cls-2" d="M1429.2,639.43a.33.33,0,0,0,0-.65.33.33,0,0,0,0,.65Z"/><rect class="cls-1" x="1468.05" y="634.44" width="1.46" height="1.51"/><path class="cls-2" d="M1468.78,636a.76.76,0,0,0,0-1.51.76.76,0,0,0,0,1.51Z"/><rect class="cls-1" x="1528.06" y="603.15" width="1.29" height="1.33"/><path class="cls-2" d="M1528.7,604.48a.67.67,0,0,0,0-1.33.67.67,0,0,0,0,1.33Z"/><rect class="cls-1" x="1607.63" y="598.07" width="1.71" height="1.77"/><path class="cls-2" d="M1608.49,599.84a.89.89,0,0,0,0-1.77.89.89,0,0,0,0,1.77Z"/><rect class="cls-1" x="1668.13" y="587.55" width="0.9" height="0.93"/><path class="cls-2" d="M1668.58,588.48a.47.47,0,0,0,0-.93.47.47,0,0,0,0,.93Z"/><rect class="cls-1" x="1715.34" y="584.02" width="0.98" height="1.01"/><path class="cls-2" d="M1715.83,585a.51.51,0,0,0,0-1,.51.51,0,0,0,0,1Z"/><rect class="cls-1" x="1745.43" y="560.27" width="0.75" height="0.77"/><path class="cls-2" d="M1745.81,561.05a.39.39,0,0,0,0-.78.39.39,0,0,0,0,.78Z"/><rect class="cls-1" x="1792.64" y="568.16" width="0.99" height="1.03"/><path class="cls-2" d="M1793.14,569.19a.52.52,0,0,0,0-1,.52.52,0,0,0,0,1Z"/><rect class="cls-1" x="1855.97" y="546.14" width="1.41" height="1.46"/><path class="cls-2" d="M1856.68,547.6a.73.73,0,0,0,0-1.46.73.73,0,0,0,0,1.46Z"/><rect class="cls-1" x="1900.22" y="522.23" width="1.51" height="1.56"/><path class="cls-2" d="M1901,523.79a.78.78,0,0,0,0-1.56.78.78,0,0,0,0,1.56Z"/><rect class="cls-1" x="1859.07" y="148.54" width="1.65" height="1.71"/><path class="cls-2" d="M1859.89,150.25a.86.86,0,0,0,0-1.71.86.86,0,0,0,0,1.71Z"/><rect class="cls-1" x="1771.37" y="155.14" width="1.17" height="1.22"/><path class="cls-2" d="M1772,156.35a.61.61,0,0,0,0-1.21.61.61,0,0,0,0,1.21Z"/><rect class="cls-1" x="1732.38" y="160.83" width="0.61" height="0.64"/><path class="cls-2" d="M1732.69,161.46a.32.32,0,0,0,0-.63.32.32,0,0,0,0,.63Z"/><rect class="cls-1" x="1704.56" y="177.62" width="0.68" height="0.7"/><path class="cls-2" d="M1704.9,178.32a.35.35,0,0,0,0-.7.35.35,0,0,0,0,.7Z"/><rect class="cls-1" x="1667.49" y="179.65" width="1.03" height="1.06"/><path class="cls-2" d="M1668,180.72a.54.54,0,0,0,0-1.07.54.54,0,0,0,0,1.07Z"/><rect class="cls-1" x="1635.69" y="187" width="1.45" height="1.5"/><path class="cls-2" d="M1636.41,188.5a.75.75,0,0,0,0-1.5.75.75,0,0,0,0,1.5Z"/><rect class="cls-1" x="1603.35" y="206.51" width="0.98" height="1.02"/><path class="cls-2" d="M1603.84,207.52a.51.51,0,0,0,0-1,.51.51,0,0,0,0,1Z"/><rect class="cls-1" x="1565.11" y="213.85" width="1.39" height="1.43"/><path class="cls-2" d="M1565.8,215.28a.72.72,0,0,0,0-1.43.72.72,0,0,0,0,1.43Z"/><rect class="cls-1" x="1494.73" y="233.48" width="1.22" height="1.27"/><path class="cls-2" d="M1495.34,234.75a.64.64,0,0,0,0-1.27.64.64,0,0,0,0,1.27Z"/><rect class="cls-1" x="1405.59" y="258.26" width="1.73" height="1.79"/><path class="cls-2" d="M1406.45,260.05a.9.9,0,0,0,0-1.79.9.9,0,0,0,0,1.79Z"/><rect class="cls-1" x="1342.8" y="293.98" width="1.67" height="1.73"/><path class="cls-2" d="M1343.63,295.71a.87.87,0,0,0,0-1.73.87.87,0,0,0,0,1.73Z"/><rect class="cls-1" x="1297.4" y="310.46" width="1.02" height="1.06"/><path class="cls-2" d="M1297.91,311.52a.53.53,0,0,0,0-1.06.53.53,0,0,0,0,1.06Z"/><rect class="cls-1" x="1266.75" y="324.22" width="1.38" height="1.43"/><path class="cls-2" d="M1267.44,325.65a.72.72,0,0,0,0-1.43.72.72,0,0,0,0,1.43Z"/><rect class="cls-1" x="1207.45" y="351.31" width="1.5" height="1.55"/><path class="cls-2" d="M1208.2,352.86a.78.78,0,0,0,0-1.55.78.78,0,0,0,0,1.55Z"/><rect class="cls-1" x="1156.67" y="389.43" width="1.66" height="1.72"/><path class="cls-2" d="M1157.5,391.15a.86.86,0,0,0,0-1.72.86.86,0,0,0,0,1.72Z"/><rect class="cls-1" x="1079.59" y="411.7" width="1.59" height="1.65"/><path class="cls-2" d="M1080.39,413.35a.83.83,0,0,0,0-1.65.83.83,0,0,0,0,1.65Z"/><rect class="cls-1" x="1047.53" y="423.59" width="1.72" height="1.78"/><path class="cls-2" d="M1048.39,425.38a.9.9,0,0,0,0-1.79.9.9,0,0,0,0,1.79Z"/><rect class="cls-1" x="969.38" y="460.98" width="1.36" height="1.41"/><path class="cls-2" d="M970.06,462.39a.71.71,0,0,0,0-1.41.71.71,0,0,0,0,1.41Z"/><rect class="cls-1" x="888.76" y="471.12" width="0.98" height="1.02"/><path class="cls-2" d="M889.25,472.14a.51.51,0,0,0,0-1,.51.51,0,0,0,0,1Z"/><rect class="cls-1" x="863.35" y="497.66" width="0.77" height="0.8"/><path class="cls-2" d="M863.74,498.46a.4.4,0,0,0,0-.8.4.4,0,0,0,0,.8Z"/><rect class="cls-1" x="796.72" y="504.98" width="1.33" height="1.38"/><path class="cls-2" d="M797.39,506.35a.69.69,0,0,0,0-1.37.69.69,0,0,0,0,1.37Z"/><rect class="cls-1" x="720.35" y="518.23" width="0.87" height="0.9"/><path class="cls-2" d="M720.78,519.13a.45.45,0,0,0,0-.9.45.45,0,0,0,0,.9Z"/><rect class="cls-1" x="672.03" y="540.73" width="1.52" height="1.58"/><path class="cls-2" d="M672.79,542.31a.79.79,0,0,0,0-1.58.79.79,0,0,0,0,1.58Z"/><rect class="cls-1" x="636.89" y="543.8" width="1.42" height="1.47"/><path class="cls-2" d="M637.6,545.26a.73.73,0,0,0,0-1.46.73.73,0,0,0,0,1.46Z"/><rect class="cls-1" x="572.46" y="545.24" width="0.91" height="0.94"/><path class="cls-2" d="M572.91,546.18a.47.47,0,0,0,0-.94.47.47,0,0,0,0,.94Z"/><rect class="cls-1" x="509.28" y="532.91" width="1.68" height="1.74"/><path class="cls-2" d="M510.12,534.65a.87.87,0,0,0,0-1.74.87.87,0,0,0,0,1.74Z"/><rect class="cls-1" x="468.07" y="536.58" width="1.29" height="1.34"/><path class="cls-2" d="M468.71,537.92a.67.67,0,0,0,0-1.34.67.67,0,0,0,0,1.34Z"/><rect class="cls-1" x="424.04" y="507.31" width="0.84" height="0.87"/><path class="cls-2" d="M424.46,508.18a.44.44,0,0,0,0-.87.44.44,0,0,0,0,.87Z"/><rect class="cls-1" x="377.94" y="462.01" width="1.31" height="1.35"/><path class="cls-2" d="M378.59,463.36a.68.68,0,0,0,0-1.35.68.68,0,0,0,0,1.35Z"/><rect class="cls-1" x="368.95" y="423.87" width="1.2" height="1.24"/><path class="cls-2" d="M369.55,425.11a.62.62,0,0,0,0-1.24.62.62,0,0,0,0,1.24Z"/><rect class="cls-1" x="333.47" y="369.17" width="0.66" height="0.68"/><path class="cls-2" d="M333.8,369.85a.34.34,0,0,0,0-.68.34.34,0,0,0,0,.68Z"/><rect class="cls-1" x="365.21" y="333.39" width="1.43" height="1.48"/><path class="cls-2" d="M365.92,334.87a.74.74,0,0,0,0-1.48.74.74,0,0,0,0,1.48Z"/><rect class="cls-1" x="353.72" y="316.45" width="1.53" height="1.59"/><path class="cls-2" d="M354.48,318a.8.8,0,0,0,0-1.59.8.8,0,0,0,0,1.59Z"/><rect class="cls-1" x="388.02" y="305.97" width="0.68" height="0.7"/><path class="cls-2" d="M388.36,306.68a.36.36,0,0,0,0-.71.36.36,0,0,0,0,.71Z"/><rect class="cls-1" x="416.98" y="299.64" width="1.26" height="1.31"/><path class="cls-2" d="M417.61,301a.66.66,0,0,0,0-1.31.66.66,0,0,0,0,1.31Z"/><rect class="cls-1" x="467.32" y="307.35" width="0.85" height="0.88"/><path class="cls-2" d="M467.74,308.23a.44.44,0,0,0,0-.88.44.44,0,0,0,0,.88Z"/><rect class="cls-1" x="542.36" y="298.41" width="1.05" height="1.09"/><path class="cls-2" d="M542.89,299.49a.54.54,0,0,0,0-1.08.54.54,0,0,0,0,1.08Z"/><rect class="cls-1" x="584.8" y="330.57" width="1.54" height="1.6"/><path class="cls-2" d="M585.57,332.16a.8.8,0,0,0,0-1.59.8.8,0,0,0,0,1.59Z"/><rect class="cls-1" x="659.25" y="334.91" width="1.39" height="1.44"/><path class="cls-2" d="M660,336.35a.72.72,0,0,0,0-1.44.72.72,0,0,0,0,1.44Z"/><rect class="cls-1" x="737" y="344.58" width="0.62" height="0.64"/><path class="cls-2" d="M737.31,345.23a.33.33,0,0,0,0-.65.33.33,0,0,0,0,.65Z"/><rect class="cls-1" x="799.01" y="368.14" width="0.62" height="0.64"/><path class="cls-2" d="M799.32,368.78a.32.32,0,0,0,0-.64.32.32,0,0,0,0,.64Z"/><rect class="cls-1" x="860.96" y="368.25" width="1.59" height="1.65"/><path class="cls-2" d="M861.76,369.9a.83.83,0,0,0,0-1.65.83.83,0,0,0,0,1.65Z"/><rect class="cls-1" x="903.45" y="406.12" width="1.33" height="1.37"/><path class="cls-2" d="M904.11,407.49a.69.69,0,0,0,0-1.37.69.69,0,0,0,0,1.37Z"/><rect class="cls-1" x="942.06" y="410.66" width="1.59" height="1.65"/><path class="cls-2" d="M942.85,412.31a.83.83,0,0,0,0-1.65.83.83,0,0,0,0,1.65Z"/><rect class="cls-1" x="982.36" y="412.86" width="0.93" height="0.96"/><path class="cls-2" d="M982.82,413.82a.48.48,0,0,0,0-1,.48.48,0,0,0,0,1Z"/><rect class="cls-1" x="1060.58" y="450.5" width="1.14" height="1.18"/><path class="cls-2" d="M1061.15,451.68a.59.59,0,0,0,0-1.18.59.59,0,0,0,0,1.18Z"/><rect class="cls-1" x="1146.72" y="485.56" width="0.69" height="0.72"/><path class="cls-2" d="M1147.07,486.28a.36.36,0,0,0,0-.72.36.36,0,0,0,0,.72Z"/><rect class="cls-1" x="1219.78" y="497.24" width="1.4" height="1.45"/><path class="cls-2" d="M1220.48,498.69a.73.73,0,0,0,0-1.45.73.73,0,0,0,0,1.45Z"/><rect class="cls-1" x="1293.62" y="509.07" width="1.59" height="1.64"/><path class="cls-2" d="M1294.41,510.72a.83.83,0,0,0,0-1.65.83.83,0,0,0,0,1.65Z"/><rect class="cls-1" x="1362.28" y="519.65" width="0.89" height="0.92"/><path class="cls-2" d="M1362.72,520.57a.46.46,0,0,0,0-.92.46.46,0,0,0,0,.92Z"/><rect class="cls-1" x="1456.1" y="520.9" width="1.18" height="1.22"/><path class="cls-2" d="M1456.69,522.12a.61.61,0,0,0,0-1.22.61.61,0,0,0,0,1.22Z"/><rect class="cls-1" x="1526.98" y="497.92" width="1.72" height="1.78"/><path class="cls-2" d="M1527.84,499.7a.89.89,0,0,0,0-1.78.89.89,0,0,0,0,1.78Z"/><rect class="cls-1" x="1626.19" y="505.92" width="1.49" height="1.54"/><path class="cls-2" d="M1626.93,507.46a.77.77,0,0,0,0-1.54.77.77,0,0,0,0,1.54Z"/><rect class="cls-1" x="1657.84" y="480.54" width="1.26" height="1.3"/><path class="cls-2" d="M1658.47,481.83a.65.65,0,0,0,0-1.29.65.65,0,0,0,0,1.29Z"/><rect class="cls-1" x="1739.06" y="474.42" width="0.79" height="0.82"/><path class="cls-2" d="M1739.46,475.24a.41.41,0,0,0,0-.82.41.41,0,0,0,0,.82Z"/><rect class="cls-1" x="1815.83" y="416.94" width="0.73" height="0.76"/><path class="cls-2" d="M1816.19,417.69a.38.38,0,0,0,0-.75.38.38,0,0,0,0,.75Z"/><rect class="cls-1" x="1882.59" y="381.41" width="1.34" height="1.39"/><path class="cls-2" d="M1883.26,382.8a.7.7,0,0,0,0-1.39.7.7,0,0,0,0,1.39Z"/><rect class="cls-1" x="1852.42" y="26.82" width="1.45" height="1.5"/><path class="cls-2" d="M1853.14,28.32a.75.75,0,0,0,0-1.5.75.75,0,0,0,0,1.5Z"/><rect class="cls-1" x="1823.92" y="11.78" width="1.05" height="1.09"/><path class="cls-2" d="M1824.44,12.87a.55.55,0,0,0,0-1.09.55.55,0,0,0,0,1.09Z"/><rect class="cls-1" x="1414.92" y="4.09" width="1.13" height="1.17"/><path class="cls-2" d="M1415.48,5.26a.59.59,0,0,0,0-1.17.59.59,0,0,0,0,1.17Z"/><rect class="cls-1" x="1362.84" y="44.1" width="1.64" height="1.69"/><path class="cls-2" d="M1363.66,45.79a.85.85,0,0,0,0-1.69.85.85,0,0,0,0,1.69Z"/><rect class="cls-1" x="1322.86" y="26.97" width="0.82" height="0.85"/><path class="cls-2" d="M1323.27,27.82a.43.43,0,0,0,0-.85.43.43,0,0,0,0,.85Z"/><rect class="cls-1" x="1260.88" y="49.84" width="1.26" height="1.3"/><path class="cls-2" d="M1261.51,51.14a.65.65,0,0,0,0-1.3.65.65,0,0,0,0,1.3Z"/><rect class="cls-1" x="1198.01" y="65.18" width="1.04" height="1.07"/><path class="cls-2" d="M1198.53,66.25a.54.54,0,0,0,0-1.07.54.54,0,0,0,0,1.07Z"/><rect class="cls-1" x="1160.75" y="60.12" width="1.25" height="1.29"/><path class="cls-2" d="M1161.37,61.41a.65.65,0,0,0,0-1.29.65.65,0,0,0,0,1.29Z"/><rect class="cls-1" x="1128.4" y="82.86" width="0.77" height="0.79"/><path class="cls-2" d="M1128.78,83.66a.4.4,0,0,0,0-.8.4.4,0,0,0,0,.8Z"/><rect class="cls-1" x="1081.76" y="104.16" width="1.21" height="1.25"/><path class="cls-2" d="M1082.37,105.42a.63.63,0,0,0,0-1.26.63.63,0,0,0,0,1.26Z"/><rect class="cls-1" x="1011.56" y="100.95" width="0.74" height="0.77"/><path class="cls-2" d="M1011.93,101.72a.39.39,0,0,0,0-.77.39.39,0,0,0,0,.77Z"/><rect class="cls-1" x="936.85" y="113.63" width="0.91" height="0.94"/><path class="cls-2" d="M937.3,114.57a.47.47,0,0,0,0-.94.47.47,0,0,0,0,.94Z"/><rect class="cls-1" x="875.72" y="130.12" width="0.68" height="0.7"/><path class="cls-2" d="M876.05,130.82a.35.35,0,0,0,0-.7.35.35,0,0,0,0,.7Z"/><rect class="cls-1" x="844.04" y="159.24" width="1.12" height="1.16"/><path class="cls-2" d="M844.6,160.4a.58.58,0,0,0,0-1.16.58.58,0,0,0,0,1.16Z"/><rect class="cls-1" x="789.63" y="161.54" width="1.08" height="1.12"/><path class="cls-2" d="M790.17,162.66a.56.56,0,0,0,0-1.12.56.56,0,0,0,0,1.12Z"/><rect class="cls-1" x="712.28" y="174.1" width="1.3" height="1.35"/><path class="cls-2" d="M712.93,175.44a.67.67,0,0,0,0-1.34.67.67,0,0,0,0,1.34Z"/><rect class="cls-1" x="657.83" y="198.88" width="1.52" height="1.58"/><path class="cls-2" d="M658.59,200.45a.79.79,0,0,0,0-1.57.79.79,0,0,0,0,1.57Z"/><rect class="cls-1" x="617.7" y="204.1" width="1.38" height="1.43"/><path class="cls-2" d="M618.39,205.53a.72.72,0,0,0,0-1.43.72.72,0,0,0,0,1.43Z"/><rect class="cls-1" x="548.69" y="221.37" width="0.98" height="1.02"/><path class="cls-2" d="M549.18,222.39a.51.51,0,0,0,0-1,.51.51,0,0,0,0,1Z"/><rect class="cls-1" x="488.81" y="236.48" width="0.72" height="0.75"/><path class="cls-2" d="M489.17,237.22a.37.37,0,0,0,0-.74.37.37,0,0,0,0,.74Z"/><rect class="cls-1" x="432.25" y="252.71" width="0.83" height="0.86"/><path class="cls-2" d="M432.66,253.56a.43.43,0,0,0,0-.85.43.43,0,0,0,0,.85Z"/><rect class="cls-1" x="391.28" y="266.61" width="1.17" height="1.21"/><path class="cls-2" d="M391.87,267.82a.61.61,0,0,0,0-1.21.61.61,0,0,0,0,1.21Z"/><rect class="cls-1" x="357.27" y="271.77" width="0.74" height="0.76"/><path class="cls-2" d="M357.64,272.53a.38.38,0,0,0,0-.76.38.38,0,0,0,0,.76Z"/><rect class="cls-1" x="271.5" y="262.38" width="0.71" height="0.74"/><path class="cls-2" d="M271.86,263.12a.37.37,0,0,0,0-.74.37.37,0,0,0,0,.74Z"/><rect class="cls-1" x="233.53" y="280.02" width="1.66" height="1.72"/><path class="cls-2" d="M234.36,281.73a.86.86,0,0,0,0-1.71.86.86,0,0,0,0,1.71Z"/><rect class="cls-1" x="175.98" y="282.91" width="0.86" height="0.89"/><path class="cls-2" d="M176.42,283.81a.45.45,0,0,0,0-.9.45.45,0,0,0,0,.9Z"/><rect class="cls-1" x="131.32" y="312.74" width="1.37" height="1.42"/><path class="cls-2" d="M132,314.16a.71.71,0,0,0,0-1.42.71.71,0,0,0,0,1.42Z"/><rect class="cls-1" x="65.17" y="309.44" width="1.59" height="1.64"/><path class="cls-2" d="M66,311.08a.82.82,0,0,0,0-1.64.82.82,0,0,0,0,1.64Z"/><rect class="cls-1" x="43.68" y="363.79" width="1.1" height="1.14"/><path class="cls-2" d="M44.23,364.92a.57.57,0,0,0,0-1.13.57.57,0,0,0,0,1.13Z"/><rect class="cls-1" x="122.28" y="384.84" width="0.98" height="1.01"/><path class="cls-2" d="M122.76,385.85a.51.51,0,0,0,0-1,.51.51,0,0,0,0,1Z"/><rect class="cls-1" x="194.47" y="353.82" width="0.83" height="0.86"/><path class="cls-2" d="M194.89,354.68a.43.43,0,0,0,0-.86.43.43,0,0,0,0,.86Z"/><rect class="cls-1" x="225.11" y="373.58" width="0.93" height="0.96"/><path class="cls-2" d="M225.58,374.54a.48.48,0,0,0,0-1,.48.48,0,0,0,0,1Z"/><rect class="cls-1" x="271.38" y="365.63" width="1.17" height="1.22"/><path class="cls-2" d="M272,366.85a.61.61,0,0,0,0-1.22.61.61,0,0,0,0,1.22Z"/><rect class="cls-1" x="301.59" y="364.92" width="1.61" height="1.67"/><path class="cls-2" d="M302.39,366.58a.83.83,0,0,0,0-1.66.83.83,0,0,0,0,1.66Z"/><rect class="cls-1" x="357.11" y="372.39" width="0.88" height="0.92"/><path class="cls-2" d="M357.55,373.3a.46.46,0,0,0,0-.91.46.46,0,0,0,0,.91Z"/><rect class="cls-1" x="390.81" y="357.17" width="1.29" height="1.34"/><path class="cls-2" d="M391.46,358.51a.67.67,0,0,0,0-1.34.67.67,0,0,0,0,1.34Z"/><rect class="cls-1" x="455.5" y="357.29" width="0.87" height="0.9"/><path class="cls-2" d="M455.93,358.19a.45.45,0,0,0,0-.9.45.45,0,0,0,0,.9Z"/><rect class="cls-1" x="488.69" y="369.16" width="1.4" height="1.45"/><path class="cls-2" d="M489.39,370.61a.73.73,0,0,0,0-1.45.73.73,0,0,0,0,1.45Z"/><rect class="cls-1" x="554.17" y="361.34" width="0.82" height="0.85"/><path class="cls-2" d="M554.58,362.19a.43.43,0,0,0,0-.85.43.43,0,0,0,0,.85Z"/><rect class="cls-1" x="584.68" y="365.75" width="1.63" height="1.69"/><path class="cls-2" d="M585.49,367.44a.85.85,0,0,0,0-1.69.85.85,0,0,0,0,1.69Z"/><rect class="cls-1" x="615.56" y="360.18" width="1.31" height="1.35"/><path class="cls-2" d="M616.22,361.53a.68.68,0,0,0,0-1.35.68.68,0,0,0,0,1.35Z"/><rect class="cls-1" x="651.88" y="381.62" width="1.74" height="1.8"/><path class="cls-2" d="M652.75,383.42a.9.9,0,0,0,0-1.8.9.9,0,0,0,0,1.8Z"/><rect class="cls-1" x="735.15" y="376.95" width="1.64" height="1.7"/><path class="cls-2" d="M736,378.65a.85.85,0,0,0,0-1.7.85.85,0,0,0,0,1.7Z"/><rect class="cls-1" x="780.92" y="392.08" width="1.01" height="1.04"/><path class="cls-2" d="M781.42,393.12a.52.52,0,0,0,0-1,.52.52,0,0,0,0,1Z"/><rect class="cls-1" x="830.82" y="389.82" width="0.66" height="0.68"/><path class="cls-2" d="M831.15,390.51a.35.35,0,0,0,0-.69.35.35,0,0,0,0,.69Z"/><rect class="cls-1" x="883.88" y="394.27" width="1.57" height="1.63"/><path class="cls-2" d="M884.67,395.9a.82.82,0,0,0,0-1.63.82.82,0,0,0,0,1.63Z"/><rect class="cls-1" x="960.78" y="409.53" width="0.66" height="0.69"/><path class="cls-2" d="M961.11,410.22a.35.35,0,0,0,0-.69.35.35,0,0,0,0,.69Z"/><rect class="cls-1" x="1049.14" y="384.66" width="1.07" height="1.1"/><path class="cls-2" d="M1049.67,385.76a.55.55,0,0,0,0-1.1.55.55,0,0,0,0,1.1Z"/><rect class="cls-1" x="1138.16" y="399.27" width="0.89" height="0.92"/><path class="cls-2" d="M1138.6,400.2a.47.47,0,0,0,0-.93.47.47,0,0,0,0,.93Z"/><rect class="cls-1" x="1169.28" y="393.41" width="1.11" height="1.15"/><path class="cls-2" d="M1169.84,394.56a.58.58,0,0,0,0-1.15.58.58,0,0,0,0,1.15Z"/><rect class="cls-1" x="1237.87" y="385.24" width="0.97" height="1.01"/><path class="cls-2" d="M1238.36,386.25a.51.51,0,0,0,0-1,.51.51,0,0,0,0,1Z"/><rect class="cls-1" x="1287.25" y="396.51" width="1.63" height="1.68"/><path class="cls-2" d="M1288.06,398.2a.85.85,0,0,0,0-1.69.85.85,0,0,0,0,1.69Z"/><rect class="cls-1" x="1362.91" y="362.34" width="1.08" height="1.12"/><path class="cls-2" d="M1363.45,363.46a.56.56,0,0,0,0-1.12.56.56,0,0,0,0,1.12Z"/><rect class="cls-1" x="1452.99" y="349.56" width="1.5" height="1.55"/><path class="cls-2" d="M1453.73,351.1a.77.77,0,0,0,0-1.54.77.77,0,0,0,0,1.54Z"/><rect class="cls-1" x="1542.18" y="312.4" width="0.62" height="0.64"/><path class="cls-2" d="M1542.49,313a.32.32,0,0,0,0-.64.32.32,0,0,0,0,.64Z"/><rect class="cls-1" x="1609.11" y="261.75" width="1.49" height="1.54"/><path class="cls-2" d="M1609.86,263.29a.77.77,0,0,0,0-1.54.77.77,0,0,0,0,1.54Z"/><rect class="cls-1" x="1599.77" y="83.22" width="0.93" height="0.96"/><path class="cls-2" d="M1600.23,84.19a.49.49,0,0,0,0-1,.49.49,0,0,0,0,1Z"/><rect class="cls-1" x="1549.13" y="64.85" width="1.61" height="1.67"/><path class="cls-2" d="M1549.93,66.52a.84.84,0,0,0,0-1.67.84.84,0,0,0,0,1.67Z"/><rect class="cls-1" x="1455.29" y="49.2" width="1.35" height="1.4"/><path class="cls-2" d="M1456,50.6a.7.7,0,0,0,0-1.4.7.7,0,0,0,0,1.4Z"/><rect class="cls-1" x="1393.31" y="60.38" width="1.18" height="1.22"/><path class="cls-2" d="M1393.9,61.6a.61.61,0,0,0,0-1.22.61.61,0,0,0,0,1.22Z"/><rect class="cls-1" x="1351.25" y="29.26" width="1.49" height="1.54"/><path class="cls-2" d="M1352,30.81a.78.78,0,0,0,0-1.55.78.78,0,0,0,0,1.55Z"/><rect class="cls-1" x="1267.27" y="35.99" width="1.57" height="1.63"/><path class="cls-2" d="M1268.05,37.61a.81.81,0,0,0,0-1.62.81.81,0,0,0,0,1.62Z"/><rect class="cls-1" x="1218.7" y="33.06" width="1.45" height="1.5"/><path class="cls-2" d="M1219.43,34.56a.75.75,0,0,0,0-1.5.75.75,0,0,0,0,1.5Z"/><rect class="cls-1" x="1141.11" y="46.9" width="1.11" height="1.15"/><path class="cls-2" d="M1141.66,48.05a.58.58,0,0,0,0-1.15.58.58,0,0,0,0,1.15Z"/><rect class="cls-1" x="1050.35" y="34.91" width="1.07" height="1.1"/><path class="cls-2" d="M1050.88,36a.56.56,0,0,0,0-1.11.56.56,0,0,0,0,1.11Z"/><rect class="cls-1" x="987.22" y="17.46" width="1.27" height="1.31"/><path class="cls-2" d="M987.85,18.78a.66.66,0,0,0,0-1.32.66.66,0,0,0,0,1.32Z"/><rect class="cls-1" x="897.31" y="23.35" width="1.05" height="1.08"/><path class="cls-2" d="M897.84,24.43a.54.54,0,0,0,0-1.08.54.54,0,0,0,0,1.08Z"/><rect class="cls-1" x="812.54" y="28.66" width="0.81" height="0.84"/><path class="cls-2" d="M813,29.5a.42.42,0,0,0,0-.84.42.42,0,0,0,0,.84Z"/><rect class="cls-1" x="737.38" y="38.37" width="1.22" height="1.26"/><path class="cls-2" d="M738,39.63a.63.63,0,0,0,0-1.26.63.63,0,0,0,0,1.26Z"/><rect class="cls-1" x="651.65" y="26.82" width="0.81" height="0.84"/><path class="cls-2" d="M652.05,27.66a.42.42,0,0,0,0-.84.42.42,0,0,0,0,.84Z"/><rect class="cls-1" x="606.24" y="32.26" width="1.63" height="1.69"/><path class="cls-2" d="M607.06,34a.85.85,0,0,0,0-1.69.85.85,0,0,0,0,1.69Z"/><rect class="cls-1" x="535.2" y="51.76" width="1.56" height="1.62"/><path class="cls-2" d="M536,53.38a.81.81,0,0,0,0-1.62.81.81,0,0,0,0,1.62Z"/><rect class="cls-1" x="442.04" y="75.77" width="0.66" height="0.68"/><path class="cls-2" d="M442.37,76.45a.34.34,0,0,0,0-.68.34.34,0,0,0,0,.68Z"/><rect class="cls-1" x="353.14" y="91.48" width="0.86" height="0.89"/><path class="cls-2" d="M353.57,92.37a.45.45,0,0,0,0-.89.45.45,0,0,0,0,.89Z"/><rect class="cls-1" x="296.11" y="107.25" width="1.41" height="1.46"/><path class="cls-2" d="M296.81,108.72a.74.74,0,0,0,0-1.47.74.74,0,0,0,0,1.47Z"/><rect class="cls-1" x="325.73" y="126.29" width="0.65" height="0.67"/><path class="cls-2" d="M326.05,127a.34.34,0,0,0,0-.68.34.34,0,0,0,0,.68Z"/><rect class="cls-1" x="288.94" y="87.33" width="1.39" height="1.44"/><path class="cls-2" d="M289.64,88.78a.73.73,0,0,0,0-1.45.73.73,0,0,0,0,1.45Z"/><rect class="cls-1" x="92.01" y="23.26" width="0.76" height="0.79"/><path class="cls-2" d="M92.39,24.05a.4.4,0,0,0,0-.79.4.4,0,0,0,0,.79Z"/><rect class="cls-1" x="14.82" y="85.74" width="1.71" height="1.77"/><path class="cls-2" d="M15.67,87.51a.89.89,0,0,0,0-1.77.89.89,0,0,0,0,1.77Z"/><rect class="cls-1" x="1179.98" y="720.57" width="1.23" height="1.27"/><path class="cls-2" d="M1180.59,721.85a.64.64,0,0,0,0-1.28.64.64,0,0,0,0,1.28Z"/><rect class="cls-1" x="1059.37" y="757.87" width="1.59" height="1.65"/><path class="cls-2" d="M1060.16,759.52a.83.83,0,0,0,0-1.65.83.83,0,0,0,0,1.65Z"/><rect class="cls-1" x="1060.44" y="785.77" width="1.15" height="1.19"/><path class="cls-2" d="M1061,787a.6.6,0,0,0,0-1.19.6.6,0,0,0,0,1.19Z"/><rect class="cls-1" x="1061.49" y="810.61" width="0.94" height="0.97"/><path class="cls-2" d="M1062,811.58a.49.49,0,0,0,0-1,.49.49,0,0,0,0,1Z"/><rect class="cls-1" x="1163.79" y="795.49" width="1.05" height="1.09"/><path class="cls-2" d="M1164.32,796.58a.55.55,0,0,0,0-1.09.55.55,0,0,0,0,1.09Z"/><rect class="cls-1" x="1132.8" y="764.28" width="0.63" height="0.66"/><path class="cls-2" d="M1133.12,764.94a.33.33,0,0,0,0-.66.33.33,0,0,0,0,.66Z"/><rect class="cls-1" x="1097.78" y="720.29" width="1.53" height="1.58"/><path class="cls-2" d="M1098.55,721.87a.79.79,0,0,0,0-1.58.79.79,0,0,0,0,1.58Z"/><rect class="cls-1" x="1057.2" y="715.74" width="0.93" height="0.97"/><path class="cls-2" d="M1057.66,716.71a.49.49,0,0,0,0-1,.49.49,0,0,0,0,1Z"/><rect class="cls-1" x="1003.69" y="662.91" width="0.82" height="0.85"/><path class="cls-2" d="M1004.1,663.77a.43.43,0,0,0,0-.86.43.43,0,0,0,0,.86Z"/><rect class="cls-1" x="988.54" y="619.68" width="0.85" height="0.88"/><path class="cls-2" d="M989,620.56a.44.44,0,0,0,0-.88.44.44,0,0,0,0,.88Z"/><rect class="cls-1" x="912.44" y="573.11" width="1.39" height="1.44"/><path class="cls-2" d="M913.13,574.56a.73.73,0,0,0,0-1.45.73.73,0,0,0,0,1.45Z"/><rect class="cls-1" x="871.28" y="509.14" width="1.71" height="1.77"/><path class="cls-2" d="M872.14,510.92a.89.89,0,0,0,0-1.78.89.89,0,0,0,0,1.78Z"/><rect class="cls-1" x="827.31" y="460.1" width="1.17" height="1.22"/><path class="cls-2" d="M827.9,461.31a.61.61,0,0,0,0-1.21.61.61,0,0,0,0,1.21Z"/><rect class="cls-1" x="820.74" y="618.25" width="0.62" height="0.65"/><path class="cls-2" d="M821.05,618.9a.33.33,0,0,0,0-.65.33.33,0,0,0,0,.65Z"/><rect class="cls-1" x="893.7" y="620.43" width="0.62" height="0.64"/><path class="cls-2" d="M894,621.08a.33.33,0,0,0,0-.65.33.33,0,0,0,0,.65Z"/><rect class="cls-1" x="945.75" y="645.83" width="1.7" height="1.76"/><path class="cls-2" d="M946.6,647.6a.89.89,0,0,0,0-1.77.89.89,0,0,0,0,1.77Z"/><rect class="cls-1" x="1011.17" y="674.33" width="0.91" height="0.94"/><path class="cls-2" d="M1011.62,675.27a.47.47,0,0,0,0-.94.47.47,0,0,0,0,.94Z"/><rect class="cls-1" x="1062.08" y="695.82" width="1.15" height="1.2"/><path class="cls-2" d="M1062.66,697a.6.6,0,0,0,0-1.19.6.6,0,0,0,0,1.19Z"/><rect class="cls-1" x="1116.99" y="708.5" width="0.59" height="0.61"/><path class="cls-2" d="M1117.29,709.1a.3.3,0,0,0,0-.6.3.3,0,0,0,0,.6Z"/><rect class="cls-1" x="1150.89" y="721.54" width="0.75" height="0.77"/><path class="cls-2" d="M1151.26,722.31a.39.39,0,0,0,0-.77.39.39,0,0,0,0,.77Z"/><rect class="cls-1" x="1205.29" y="753.15" width="0.58" height="0.6"/><path class="cls-2" d="M1205.58,753.75a.3.3,0,0,0,0-.6.3.3,0,0,0,0,.6Z"/><rect class="cls-1" x="1240.25" y="755.78" width="1.16" height="1.2"/><path class="cls-2" d="M1240.82,757a.6.6,0,0,0,0-1.19.6.6,0,0,0,0,1.19Z"/><rect class="cls-1" x="1294.8" y="767.59" width="1.32" height="1.37"/><path class="cls-2" d="M1295.47,769a.69.69,0,0,0,0-1.37.69.69,0,0,0,0,1.37Z"/><rect class="cls-1" x="1346.3" y="774.17" width="1.36" height="1.41"/><path class="cls-2" d="M1347,775.58a.71.71,0,0,0,0-1.41.71.71,0,0,0,0,1.41Z"/><rect class="cls-1" x="1414.85" y="798.52" width="0.81" height="0.84"/><path class="cls-2" d="M1415.26,799.36a.42.42,0,0,0,0-.84.42.42,0,0,0,0,.84Z"/><rect class="cls-1" x="1457.19" y="807.28" width="0.62" height="0.64"/><path class="cls-2" d="M1457.5,807.92a.32.32,0,0,0,0-.64.32.32,0,0,0,0,.64Z"/><rect class="cls-1" x="1542.45" y="829.59" width="0.59" height="0.61"/><path class="cls-2" d="M1542.74,830.2a.31.31,0,0,0,0-.61.31.31,0,0,0,0,.61Z"/><rect class="cls-1" x="1588.97" y="864.33" width="0.79" height="0.81"/><path class="cls-2" d="M1589.36,865.14a.41.41,0,0,0,0-.81.41.41,0,0,0,0,.81Z"/><rect class="cls-1" x="1622.64" y="863.6" width="1.19" height="1.24"/><path class="cls-2" d="M1623.24,864.84a.62.62,0,0,0,0-1.24.62.62,0,0,0,0,1.24Z"/><rect class="cls-1" x="1654.05" y="865.53" width="0.7" height="0.73"/><path class="cls-2" d="M1654.41,866.26a.37.37,0,0,0,0-.73.37.37,0,0,0,0,.73Z"/><rect class="cls-1" x="1681.39" y="884.79" width="1.43" height="1.48"/><path class="cls-2" d="M1682.1,886.27a.74.74,0,0,0,0-1.48.74.74,0,0,0,0,1.48Z"/><rect class="cls-1" x="1766.44" y="897.88" width="0.73" height="0.76"/><path class="cls-2" d="M1766.81,898.64a.38.38,0,0,0,0-.76.38.38,0,0,0,0,.76Z"/><rect class="cls-1" x="1847.14" y="892.76" width="0.92" height="0.95"/><path class="cls-2" d="M1847.6,893.72a.48.48,0,0,0,0-1,.48.48,0,0,0,0,1Z"/><rect class="cls-1" x="1919.49" y="917.94" width="1.15" height="1.19"/><path class="cls-2" d="M1920.06,919.13a.6.6,0,0,0,0-1.19.6.6,0,0,0,0,1.19Z"/><rect class="cls-1" x="1910.66" y="799.37" width="0.83" height="0.86"/><path class="cls-2" d="M1911.07,800.23a.43.43,0,0,0,0-.86.43.43,0,0,0,0,.86Z"/><rect class="cls-1" x="1850.72" y="823" width="1.38" height="1.42"/><path class="cls-2" d="M1851.4,824.42a.71.71,0,0,0,0-1.42.71.71,0,0,0,0,1.42Z"/><rect class="cls-1" x="1818" y="828.02" width="0.87" height="0.9"/><path class="cls-2" d="M1818.44,828.92a.45.45,0,0,0,0-.9.45.45,0,0,0,0,.9Z"/><rect class="cls-1" x="1772.35" y="841.79" width="1.27" height="1.31"/><path class="cls-2" d="M1773,843.1a.66.66,0,0,0,0-1.31.66.66,0,0,0,0,1.31Z"/><rect class="cls-1" x="1712.17" y="833.57" width="0.73" height="0.76"/><path class="cls-2" d="M1712.54,834.33a.38.38,0,0,0,0-.76.38.38,0,0,0,0,.76Z"/><rect class="cls-1" x="1688.78" y="865.05" width="1.49" height="1.54"/><path class="cls-2" d="M1689.53,866.59a.77.77,0,0,0,0-1.54.77.77,0,0,0,0,1.54Z"/><rect class="cls-1" x="1650.45" y="870.59" width="1.14" height="1.18"/><path class="cls-2" d="M1651,871.77a.59.59,0,0,0,0-1.18.59.59,0,0,0,0,1.18Z"/><rect class="cls-1" x="1588.83" y="890.1" width="0.76" height="0.79"/><path class="cls-2" d="M1589.21,890.89a.4.4,0,0,0,0-.79.4.4,0,0,0,0,.79Z"/><rect class="cls-1" x="1505.44" y="916.52" width="1.49" height="1.54"/><path class="cls-2" d="M1506.19,918.06a.77.77,0,0,0,0-1.54.77.77,0,0,0,0,1.54Z"/><rect class="cls-1" x="1460.78" y="939.78" width="1.5" height="1.55"/><path class="cls-2" d="M1461.53,941.33a.78.78,0,0,0,0-1.55.78.78,0,0,0,0,1.55Z"/><rect class="cls-1" x="1383.73" y="960" width="1.22" height="1.27"/><path class="cls-2" d="M1384.34,961.27a.64.64,0,0,0,0-1.27.64.64,0,0,0,0,1.27Z"/><rect class="cls-1" x="1358.12" y="980.6" width="1.09" height="1.13"/><path class="cls-2" d="M1358.66,981.73a.57.57,0,0,0,0-1.13.57.57,0,0,0,0,1.13Z"/><rect class="cls-1" x="1293.87" y="1004.88" width="0.97" height="1"/><path class="cls-2" d="M1294.35,1005.88a.5.5,0,0,0,0-1,.5.5,0,0,0,0,1Z"/><rect class="cls-1" x="1210.16" y="1019.13" width="1.3" height="1.35"/><path class="cls-2" d="M1210.81,1020.48a.68.68,0,0,0,0-1.35.68.68,0,0,0,0,1.35Z"/><rect class="cls-1" x="1140.73" y="1040.1" width="0.74" height="0.77"/><path class="cls-2" d="M1141.1,1040.87a.39.39,0,0,0,0-.77.39.39,0,0,0,0,.77Z"/><rect class="cls-1" x="1098.11" y="1072.57" width="1.67" height="1.73"/><path class="cls-2" d="M1099,1074.3a.87.87,0,0,0,0-1.73.87.87,0,0,0,0,1.73Z"/><rect class="cls-1" x="1285.05" y="1071.83" width="1.43" height="1.48"/><path class="cls-2" d="M1285.76,1073.31a.74.74,0,0,0,0-1.48.74.74,0,0,0,0,1.48Z"/><rect class="cls-1" x="1327.73" y="1041.58" width="1.11" height="1.15"/><path class="cls-2" d="M1328.28,1042.73a.58.58,0,0,0,0-1.15.58.58,0,0,0,0,1.15Z"/><rect class="cls-1" x="1398.78" y="990.36" width="1.27" height="1.31"/><path class="cls-2" d="M1399.42,991.67a.66.66,0,0,0,0-1.31.66.66,0,0,0,0,1.31Z"/><rect class="cls-1" x="1434.51" y="959.81" width="1.38" height="1.43"/><path class="cls-2" d="M1435.2,961.24a.72.72,0,0,0,0-1.43.72.72,0,0,0,0,1.43Z"/><rect class="cls-1" x="1494.37" y="929.47" width="0.95" height="0.98"/><path class="cls-2" d="M1494.85,930.46a.5.5,0,0,0,0-1,.5.5,0,0,0,0,1Z"/><rect class="cls-1" x="1530.76" y="866.9" width="0.86" height="0.89"/><path class="cls-2" d="M1531.19,867.79a.45.45,0,0,0,0-.89.45.45,0,0,0,0,.89Z"/><rect class="cls-1" x="1557.87" y="844.86" width="1.62" height="1.67"/><path class="cls-2" d="M1558.68,846.53a.84.84,0,0,0,0-1.67.84.84,0,0,0,0,1.67Z"/><rect class="cls-1" x="1633.34" y="804.35" width="0.61" height="0.63"/><path class="cls-2" d="M1633.65,805a.32.32,0,0,0,0-.63.32.32,0,0,0,0,.63Z"/><rect class="cls-1" x="1677.8" y="746.55" width="0.66" height="0.69"/><path class="cls-2" d="M1678.14,747.23a.34.34,0,0,0,0-.68.34.34,0,0,0,0,.68Z"/><rect class="cls-1" x="1713.33" y="731.37" width="0.97" height="1.01"/><path class="cls-2" d="M1713.82,732.37a.5.5,0,0,0,0-1,.5.5,0,0,0,0,1Z"/><rect class="cls-1" x="1778.99" y="674.61" width="1.48" height="1.53"/><path class="cls-2" d="M1779.73,676.14a.77.77,0,0,0,0-1.53.77.77,0,0,0,0,1.53Z"/><rect class="cls-1" x="1836" y="634.04" width="1.52" height="1.57"/><path class="cls-2" d="M1836.76,635.62a.79.79,0,0,0,0-1.58.79.79,0,0,0,0,1.58Z"/><rect class="cls-1" x="1880.68" y="549.57" width="1.66" height="1.72"/><path class="cls-2" d="M1881.52,551.29a.86.86,0,0,0,0-1.72.86.86,0,0,0,0,1.72Z"/><rect class="cls-1" x="1866.8" y="321.06" width="1.36" height="1.41"/><path class="cls-2" d="M1867.48,322.46a.7.7,0,0,0,0-1.4.7.7,0,0,0,0,1.4Z"/><rect class="cls-1" x="1823.7" y="277.53" width="1.04" height="1.08"/><path class="cls-2" d="M1824.22,278.61a.54.54,0,0,0,0-1.08.54.54,0,0,0,0,1.08Z"/><rect class="cls-1" x="1774.67" y="208.44" width="1.13" height="1.17"/><path class="cls-2" d="M1775.24,209.61a.59.59,0,0,0,0-1.17.59.59,0,0,0,0,1.17Z"/><rect class="cls-1" x="1728.9" y="170.51" width="0.91" height="0.94"/><path class="cls-2" d="M1729.35,171.45a.47.47,0,0,0,0-.94.47.47,0,0,0,0,.94Z"/><rect class="cls-1" x="1670.44" y="103.65" width="0.6" height="0.63"/><path class="cls-2" d="M1670.75,104.28a.32.32,0,0,0,0-.63.32.32,0,0,0,0,.63Z"/><rect class="cls-1" x="1523.65" y="120.02" width="1.42" height="1.47"/><path class="cls-2" d="M1524.36,121.5a.74.74,0,0,0,0-1.48.74.74,0,0,0,0,1.48Z"/><rect class="cls-1" x="1508.45" y="173.03" width="1.46" height="1.51"/><path class="cls-2" d="M1509.19,174.55a.76.76,0,0,0,0-1.52.76.76,0,0,0,0,1.52Z"/><rect class="cls-1" x="1496.4" y="203.9" width="1.6" height="1.66"/><path class="cls-2" d="M1497.2,205.56a.83.83,0,0,0,0-1.66.83.83,0,0,0,0,1.66Z"/><rect class="cls-1" x="1519" y="278.05" width="1.05" height="1.09"/><path class="cls-2" d="M1519.53,279.14a.55.55,0,0,0,0-1.09.55.55,0,0,0,0,1.09Z"/><rect class="cls-1" x="1510.59" y="357.24" width="1.22" height="1.26"/><path class="cls-2" d="M1511.19,358.5a.63.63,0,0,0,0-1.26.63.63,0,0,0,0,1.26Z"/><rect class="cls-1" x="1507.69" y="416.37" width="1.07" height="1.11"/><path class="cls-2" d="M1508.23,417.48a.56.56,0,0,0,0-1.11.56.56,0,0,0,0,1.11Z"/><rect class="cls-1" x="1495.89" y="469.58" width="1.56" height="1.61"/><path class="cls-2" d="M1496.66,471.19a.81.81,0,0,0,0-1.61.81.81,0,0,0,0,1.61Z"/><rect class="cls-1" x="1506.11" y="510.89" width="0.85" height="0.88"/><path class="cls-2" d="M1506.54,511.77a.44.44,0,0,0,0-.88.44.44,0,0,0,0,.88Z"/><rect class="cls-1" x="1502" y="551.43" width="0.78" height="0.8"/><path class="cls-2" d="M1502.39,552.23a.4.4,0,0,0,0-.8.4.4,0,0,0,0,.8Z"/><rect class="cls-1" x="1496.15" y="636.32" width="1.22" height="1.26"/><path class="cls-2" d="M1496.76,637.58a.63.63,0,0,0,0-1.26.63.63,0,0,0,0,1.26Z"/><rect class="cls-1" x="1491.21" y="673.6" width="1.28" height="1.32"/><path class="cls-2" d="M1491.85,674.93a.67.67,0,0,0,0-1.33.67.67,0,0,0,0,1.33Z"/><rect class="cls-1" x="1522.68" y="738.13" width="0.87" height="0.9"/><path class="cls-2" d="M1523.12,739a.45.45,0,0,0,0-.9.45.45,0,0,0,0,.9Z"/><rect class="cls-1" x="1518.86" y="796.89" width="1.12" height="1.16"/><path class="cls-2" d="M1519.42,798.05a.58.58,0,0,0,0-1.16.58.58,0,0,0,0,1.16Z"/><rect class="cls-1" x="1521.61" y="865.84" width="1.22" height="1.27"/><path class="cls-2" d="M1522.22,867.1a.63.63,0,0,0,0-1.26.63.63,0,0,0,0,1.26Z"/><rect class="cls-1" x="1529.37" y="945.14" width="1.25" height="1.3"/><path class="cls-2" d="M1530,946.44a.65.65,0,0,0,0-1.3.65.65,0,0,0,0,1.3Z"/><rect class="cls-1" x="1607.59" y="926.07" width="0.81" height="0.84"/><path class="cls-2" d="M1608,926.91a.42.42,0,0,0,0-.84.42.42,0,0,0,0,.84Z"/><rect class="cls-1" x="1560.94" y="893.34" width="1.21" height="1.25"/><path class="cls-2" d="M1561.55,894.59a.63.63,0,0,0,0-1.25.63.63,0,0,0,0,1.25Z"/><rect class="cls-1" x="1508.75" y="838.05" width="1.6" height="1.66"/><path class="cls-2" d="M1509.55,839.7a.83.83,0,0,0,0-1.65.83.83,0,0,0,0,1.65Z"/><rect class="cls-1" x="1480.98" y="809.24" width="0.68" height="0.7"/><path class="cls-2" d="M1481.32,809.94a.35.35,0,0,0,0-.7.35.35,0,0,0,0,.7Z"/><rect class="cls-1" x="1439.38" y="778.87" width="1.59" height="1.64"/><path class="cls-2" d="M1440.18,780.52a.83.83,0,0,0,0-1.65.83.83,0,0,0,0,1.65Z"/><rect class="cls-1" x="1378.08" y="720.97" width="1.56" height="1.62"/><path class="cls-2" d="M1378.86,722.59a.81.81,0,0,0,0-1.62.81.81,0,0,0,0,1.62Z"/><rect class="cls-1" x="1345.48" y="656.8" width="0.7" height="0.72"/><path class="cls-2" d="M1345.83,657.52a.36.36,0,0,0,0-.72.36.36,0,0,0,0,.72Z"/><rect class="cls-1" x="1300.49" y="615.66" width="1.53" height="1.58"/><path class="cls-2" d="M1301.25,617.24a.79.79,0,0,0,0-1.58.79.79,0,0,0,0,1.58Z"/><rect class="cls-1" x="1267.91" y="584.59" width="1.22" height="1.26"/><path class="cls-2" d="M1268.52,585.85a.63.63,0,0,0,0-1.26.63.63,0,0,0,0,1.26Z"/><rect class="cls-1" x="1236.06" y="553.59" width="1.07" height="1.1"/><path class="cls-2" d="M1236.59,554.69a.55.55,0,0,0,0-1.1.55.55,0,0,0,0,1.1Z"/><rect class="cls-1" x="1207.48" y="499.15" width="1.34" height="1.39"/><path class="cls-2" d="M1208.15,500.53a.69.69,0,0,0,0-1.38.69.69,0,0,0,0,1.38Z"/><rect class="cls-1" x="1160.55" y="441.64" width="0.58" height="0.6"/><path class="cls-2" d="M1160.84,442.24a.3.3,0,0,0,0-.6.3.3,0,0,0,0,.6Z"/><rect class="cls-1" x="1099.66" y="414.45" width="1.58" height="1.63"/><path class="cls-2" d="M1100.45,416.08a.82.82,0,0,0,0-1.63.82.82,0,0,0,0,1.63Z"/><rect class="cls-1" x="1092.14" y="372.82" width="1.32" height="1.37"/><path class="cls-2" d="M1092.8,374.19a.69.69,0,0,0,0-1.37.69.69,0,0,0,0,1.37Z"/><rect class="cls-1" x="1058.32" y="341.15" width="1.67" height="1.73"/><path class="cls-2" d="M1059.16,342.87a.86.86,0,0,0,0-1.72.86.86,0,0,0,0,1.72Z"/><rect class="cls-1" x="1004.33" y="286.13" width="0.68" height="0.7"/><path class="cls-2" d="M1004.67,286.83a.35.35,0,0,0,0-.7.35.35,0,0,0,0,.7Z"/><rect class="cls-1" x="940.94" y="226.56" width="1.07" height="1.1"/><path class="cls-2" d="M941.47,227.66a.55.55,0,0,0,0-1.1.55.55,0,0,0,0,1.1Z"/><rect class="cls-1" x="874.98" y="183.89" width="1.54" height="1.59"/><path class="cls-2" d="M875.75,185.48a.8.8,0,0,0,0-1.59.8.8,0,0,0,0,1.59Z"/><rect class="cls-1" x="862.03" y="152.03" width="1.35" height="1.39"/><path class="cls-2" d="M862.71,153.43a.7.7,0,0,0,0-1.4.7.7,0,0,0,0,1.4Z"/><rect class="cls-1" x="839.51" y="129.41" width="0.78" height="0.81"/><path class="cls-2" d="M839.9,130.22a.41.41,0,0,0,0-.81.41.41,0,0,0,0,.81Z"/><rect class="cls-1" x="751.66" y="88.34" width="1.27" height="1.32"/><path class="cls-2" d="M752.3,89.66a.66.66,0,0,0,0-1.32.66.66,0,0,0,0,1.32Z"/><rect class="cls-1" x="613.2" y="148.4" width="1.14" height="1.18"/><path class="cls-2" d="M613.77,149.58a.59.59,0,0,0,0-1.18.59.59,0,0,0,0,1.18Z"/><rect class="cls-1" x="619.83" y="190.94" width="0.62" height="0.65"/><path class="cls-2" d="M620.15,191.59a.33.33,0,0,0,0-.65.33.33,0,0,0,0,.65Z"/><rect class="cls-1" x="608.66" y="229.57" width="0.99" height="1.03"/><path class="cls-2" d="M609.16,230.6a.52.52,0,0,0,0-1,.52.52,0,0,0,0,1Z"/><rect class="cls-1" x="611.08" y="293.08" width="1.17" height="1.22"/><path class="cls-2" d="M611.67,294.3a.61.61,0,0,0,0-1.22.61.61,0,0,0,0,1.22Z"/><rect class="cls-1" x="629.4" y="339.26" width="1.19" height="1.23"/><path class="cls-2" d="M630,340.49a.62.62,0,0,0,0-1.23.62.62,0,0,0,0,1.23Z"/><rect class="cls-1" x="608.32" y="426.2" width="0.74" height="0.76"/><path class="cls-2" d="M608.69,427a.38.38,0,0,0,0-.76.38.38,0,0,0,0,.76Z"/><rect class="cls-1" x="633.25" y="499.08" width="0.62" height="0.65"/><path class="cls-2" d="M633.56,499.73a.33.33,0,0,0,0-.65.33.33,0,0,0,0,.65Z"/><rect class="cls-1" x="635.66" y="528.91" width="0.82" height="0.84"/><path class="cls-2" d="M636.07,529.75a.42.42,0,0,0,0-.84.42.42,0,0,0,0,.84Z"/><rect class="cls-1" x="624.9" y="618.59" width="0.67" height="0.7"/><path class="cls-2" d="M625.24,619.28a.35.35,0,0,0,0-.69.35.35,0,0,0,0,.69Z"/><rect class="cls-1" x="626.12" y="694.48" width="1.65" height="1.71"/><path class="cls-2" d="M626.94,696.19a.86.86,0,0,0,0-1.71.86.86,0,0,0,0,1.71Z"/><rect class="cls-1" x="658.89" y="771.16" width="1.25" height="1.29"/><path class="cls-2" d="M659.51,772.45a.65.65,0,0,0,0-1.29.65.65,0,0,0,0,1.29Z"/><rect class="cls-1" x="644.78" y="824.1" width="0.96" height="0.99"/><path class="cls-2" d="M645.26,825.09a.5.5,0,0,0,0-1,.5.5,0,0,0,0,1Z"/><rect class="cls-1" x="647.61" y="908.57" width="1.44" height="1.49"/><path class="cls-2" d="M648.33,910.06a.75.75,0,0,0,0-1.49.75.75,0,0,0,0,1.49Z"/><rect class="cls-1" x="656.5" y="948.39" width="0.75" height="0.77"/><path class="cls-2" d="M656.87,949.17a.39.39,0,0,0,0-.78.39.39,0,0,0,0,.78Z"/><rect class="cls-1" x="666.44" y="1005.29" width="0.82" height="0.85"/><path class="cls-2" d="M666.85,1006.15a.43.43,0,0,0,0-.86.43.43,0,0,0,0,.86Z"/><rect class="cls-1" x="676.94" y="1053.93" width="0.71" height="0.73"/><path class="cls-2" d="M677.29,1054.66a.37.37,0,0,0,0-.73.37.37,0,0,0,0,.73Z"/><rect class="cls-1" x="677.93" y="1056.79" width="0.97" height="1"/><path class="cls-2" d="M678.41,1057.78a.5.5,0,0,0,0-1,.5.5,0,0,0,0,1Z"/><rect class="cls-1" x="707.48" y="1018.99" width="0.69" height="0.71"/><path class="cls-2" d="M707.82,1019.71a.36.36,0,0,0,0-.72.36.36,0,0,0,0,.72Z"/><rect class="cls-1" x="670.32" y="1016.55" width="0.91" height="0.94"/><path class="cls-2" d="M670.77,1017.49a.47.47,0,0,0,0-.94.47.47,0,0,0,0,.94Z"/><rect class="cls-1" x="624.65" y="968.29" width="1.33" height="1.38"/><path class="cls-2" d="M625.32,969.67a.69.69,0,0,0,0-1.38.69.69,0,0,0,0,1.38Z"/><rect class="cls-1" x="545.39" y="931.49" width="0.77" height="0.8"/><path class="cls-2" d="M545.78,932.29a.4.4,0,0,0,0-.8.4.4,0,0,0,0,.8Z"/><rect class="cls-1" x="479.14" y="902.15" width="1.09" height="1.12"/><path class="cls-2" d="M479.69,903.27a.56.56,0,0,0,0-1.12.56.56,0,0,0,0,1.12Z"/><rect class="cls-1" x="446.07" y="889.06" width="0.69" height="0.71"/><path class="cls-2" d="M446.42,889.77a.36.36,0,0,0,0-.71.36.36,0,0,0,0,.71Z"/><rect class="cls-1" x="380.1" y="828.78" width="0.73" height="0.76"/><path class="cls-2" d="M380.46,829.54a.38.38,0,0,0,0-.76.38.38,0,0,0,0,.76Z"/><rect class="cls-1" x="348.36" y="812.55" width="1.57" height="1.62"/><path class="cls-2" d="M349.14,814.17a.81.81,0,0,0,0-1.62.81.81,0,0,0,0,1.62Z"/><rect class="cls-1" x="318.43" y="794.66" width="1.71" height="1.77"/><path class="cls-2" d="M319.29,796.43a.89.89,0,0,0,0-1.77.89.89,0,0,0,0,1.77Z"/><rect class="cls-1" x="261.8" y="751.07" width="1.41" height="1.46"/><path class="cls-2" d="M262.5,752.53a.73.73,0,0,0,0-1.46.73.73,0,0,0,0,1.46Z"/><rect class="cls-1" x="217.73" y="744.81" width="1.06" height="1.1"/><path class="cls-2" d="M218.26,745.91a.55.55,0,0,0,0-1.1.55.55,0,0,0,0,1.1Z"/><rect class="cls-1" x="154.31" y="700.43" width="0.65" height="0.68"/><path class="cls-2" d="M154.64,701.11a.34.34,0,0,0,0-.68.34.34,0,0,0,0,.68Z"/><rect class="cls-1" x="121.31" y="667.51" width="1.06" height="1.1"/><path class="cls-2" d="M121.84,668.61a.55.55,0,0,0,0-1.1.55.55,0,0,0,0,1.1Z"/><rect class="cls-1" x="90.97" y="641.38" width="1.1" height="1.13"/><path class="cls-2" d="M91.52,642.51a.57.57,0,0,0,0-1.13.57.57,0,0,0,0,1.13Z"/><rect class="cls-1" x="50.78" y="622.92" width="0.75" height="0.77"/><path class="cls-2" d="M51.16,623.69a.39.39,0,0,0,0-.77.39.39,0,0,0,0,.77Z"/><rect class="cls-1" x="1158.31" y="780.71" width="1.42" height="1.47"/><path class="cls-2" d="M1159,782.18a.74.74,0,0,0,0-1.47.74.74,0,0,0,0,1.47Z"/><rect class="cls-1" x="1070.4" y="793.3" width="1.27" height="1.31"/><path class="cls-2" d="M1071,794.62a.66.66,0,0,0,0-1.32.66.66,0,0,0,0,1.32Z"/><rect class="cls-1" x="1024.82" y="794.12" width="1.3" height="1.35"/><path class="cls-2" d="M1025.47,795.46a.67.67,0,0,0,0-1.34.67.67,0,0,0,0,1.34Z"/><rect class="cls-1" x="987.44" y="816.43" width="1.35" height="1.4"/><path class="cls-2" d="M988.12,817.83a.7.7,0,0,0,0-1.4.7.7,0,0,0,0,1.4Z"/><rect class="cls-1" x="929.08" y="800.91" width="1.34" height="1.39"/><path class="cls-2" d="M929.75,802.3a.7.7,0,0,0,0-1.39.7.7,0,0,0,0,1.39Z"/><rect class="cls-1" x="865.13" y="822.24" width="1.03" height="1.06"/><path class="cls-2" d="M865.65,823.3a.53.53,0,0,0,0-1.06.53.53,0,0,0,0,1.06Z"/><rect class="cls-1" x="798.04" y="835.84" width="1.45" height="1.51"/><path class="cls-2" d="M798.76,837.35a.76.76,0,0,0,0-1.51.76.76,0,0,0,0,1.51Z"/><rect class="cls-1" x="736.03" y="849.26" width="1.24" height="1.28"/><path class="cls-2" d="M736.65,850.54a.64.64,0,0,0,0-1.28.64.64,0,0,0,0,1.28Z"/><rect class="cls-1" x="676.06" y="858.17" width="1.71" height="1.77"/><path class="cls-2" d="M676.92,859.94a.89.89,0,0,0,0-1.77.89.89,0,0,0,0,1.77Z"/><rect class="cls-1" x="591.56" y="841.2" width="1.29" height="1.34"/><path class="cls-2" d="M592.2,842.54a.67.67,0,0,0,0-1.34.67.67,0,0,0,0,1.34Z"/><rect class="cls-1" x="518.63" y="858.87" width="0.85" height="0.88"/><path class="cls-2" d="M519.05,859.74a.44.44,0,0,0,0-.87.44.44,0,0,0,0,.87Z"/><rect class="cls-1" x="435.31" y="848.61" width="1.35" height="1.4"/><path class="cls-2" d="M436,850a.7.7,0,0,0,0-1.4.7.7,0,0,0,0,1.4Z"/><rect class="cls-1" x="489.93" y="965.02" width="0.73" height="0.75"/><path class="cls-2" d="M490.3,965.77a.38.38,0,0,0,0-.75.38.38,0,0,0,0,.75Z"/><rect class="cls-1" x="505.96" y="916.19" width="0.77" height="0.8"/><path class="cls-2" d="M506.35,917a.4.4,0,0,0,0-.79.4.4,0,0,0,0,.79Z"/><rect class="cls-1" x="559.37" y="874.8" width="1.2" height="1.24"/><path class="cls-2" d="M560,876.05a.63.63,0,0,0,0-1.25.63.63,0,0,0,0,1.25Z"/><rect class="cls-1" x="615.44" y="842.7" width="1.53" height="1.58"/><path class="cls-2" d="M616.2,844.28a.79.79,0,0,0,0-1.58.79.79,0,0,0,0,1.58Z"/><rect class="cls-1" x="671.14" y="799.32" width="0.68" height="0.71"/><path class="cls-2" d="M671.49,800a.35.35,0,0,0,0-.7.35.35,0,0,0,0,.7Z"/><rect class="cls-1" x="730.44" y="740.37" width="0.86" height="0.89"/><path class="cls-2" d="M730.87,741.27a.45.45,0,0,0,0-.9.45.45,0,0,0,0,.9Z"/><rect class="cls-1" x="758.95" y="708.16" width="1.16" height="1.2"/><path class="cls-2" d="M759.53,709.36a.6.6,0,0,0,0-1.2.6.6,0,0,0,0,1.2Z"/><rect class="cls-1" x="782.43" y="677.68" width="0.98" height="1.01"/><path class="cls-2" d="M782.92,678.69a.51.51,0,0,0,0-1,.51.51,0,0,0,0,1Z"/><rect class="cls-1" x="811.18" y="639.8" width="1.51" height="1.56"/><path class="cls-2" d="M811.94,641.36a.78.78,0,0,0,0-1.56.78.78,0,0,0,0,1.56Z"/><rect class="cls-1" x="842.16" y="606.87" width="0.8" height="0.83"/><path class="cls-2" d="M842.56,607.7a.42.42,0,0,0,0-.83.42.42,0,0,0,0,.83Z"/><rect class="cls-1" x="892.36" y="584.65" width="1.09" height="1.13"/><path class="cls-2" d="M892.91,585.78a.57.57,0,0,0,0-1.13.57.57,0,0,0,0,1.13Z"/><rect class="cls-1" x="931.05" y="535.01" width="1.15" height="1.19"/><path class="cls-2" d="M931.63,536.2a.6.6,0,0,0,0-1.19.6.6,0,0,0,0,1.19Z"/><rect class="cls-1" x="958.16" y="504.19" width="1.48" height="1.53"/><path class="cls-2" d="M958.9,505.73a.77.77,0,0,0,0-1.54.77.77,0,0,0,0,1.54Z"/><rect class="cls-1" x="987.15" y="459.39" width="1.56" height="1.62"/><path class="cls-2" d="M987.93,461a.81.81,0,0,0,0-1.61.81.81,0,0,0,0,1.61Z"/><rect class="cls-1" x="1036.03" y="414.22" width="1.02" height="1.05"/><path class="cls-2" d="M1036.54,415.27a.53.53,0,0,0,0-1,.53.53,0,0,0,0,1Z"/><rect class="cls-1" x="1080.71" y="367.64" width="1.63" height="1.69"/><path class="cls-2" d="M1081.53,369.33a.85.85,0,0,0,0-1.69.85.85,0,0,0,0,1.69Z"/><rect class="cls-1" x="1118.13" y="323.63" width="1.51" height="1.56"/><path class="cls-2" d="M1118.88,325.2a.79.79,0,0,0,0-1.57.79.79,0,0,0,0,1.57Z"/><rect class="cls-1" x="1181.87" y="264.38" width="1.72" height="1.78"/><path class="cls-2" d="M1182.73,266.16a.89.89,0,0,0,0-1.78.89.89,0,0,0,0,1.78Z"/><rect class="cls-1" x="1203.07" y="189.59" width="1.08" height="1.12"/><path class="cls-2" d="M1203.61,190.71a.56.56,0,0,0,0-1.12.56.56,0,0,0,0,1.12Z"/><rect class="cls-1" x="1242.29" y="157.97" width="1.01" height="1.05"/><path class="cls-2" d="M1242.8,159a.53.53,0,0,0,0-1.05.53.53,0,0,0,0,1.05Z"/><rect class="cls-1" x="1248.38" y="113.41" width="1.17" height="1.21"/><path class="cls-2" d="M1249,114.62a.61.61,0,0,0,0-1.21.61.61,0,0,0,0,1.21Z"/><rect class="cls-1" x="1285.98" y="7.58" width="1.56" height="1.61"/><path class="cls-2" d="M1286.75,9.2a.81.81,0,0,0,0-1.62.81.81,0,0,0,0,1.62Z"/><rect class="cls-1" x="390.65" y="8.72" width="1.41" height="1.46"/><path class="cls-2" d="M391.36,10.19a.74.74,0,0,0,0-1.47.74.74,0,0,0,0,1.47Z"/><rect class="cls-1" x="300.57" y="41.52" width="1.69" height="1.75"/><path class="cls-2" d="M301.42,43.28a.88.88,0,0,0,0-1.76.88.88,0,0,0,0,1.76Z"/><rect class="cls-1" x="254.09" y="79.36" width="1.18" height="1.23"/><path class="cls-2" d="M254.69,80.59a.62.62,0,0,0,0-1.23.62.62,0,0,0,0,1.23Z"/><rect class="cls-1" x="218.54" y="133.63" width="1.14" height="1.18"/><path class="cls-2" d="M219.11,134.81a.59.59,0,0,0,0-1.18.59.59,0,0,0,0,1.18Z"/><rect class="cls-1" x="170.74" y="190.57" width="1.68" height="1.74"/><path class="cls-2" d="M171.58,192.31a.87.87,0,0,0,0-1.74.87.87,0,0,0,0,1.74Z"/><rect class="cls-1" x="104.65" y="250.31" width="1.15" height="1.19"/><path class="cls-2" d="M105.22,251.51a.6.6,0,0,0,0-1.2.6.6,0,0,0,0,1.2Z"/><rect class="cls-1" x="80.29" y="298.92" width="1.63" height="1.69"/><path class="cls-2" d="M81.1,300.61a.85.85,0,0,0,0-1.69.85.85,0,0,0,0,1.69Z"/><rect class="cls-1" x="52.24" y="331.47" width="0.9" height="0.93"/><path class="cls-2" d="M52.69,332.4a.47.47,0,0,0,0-.93.47.47,0,0,0,0,.93Z"/><rect class="cls-1" x="14.19" y="383.96" width="0.66" height="0.68"/><path class="cls-2" d="M14.52,384.65a.35.35,0,0,0,0-.69.35.35,0,0,0,0,.69Z"/><rect class="cls-1" x="37.26" y="819.06" width="0.63" height="0.65"/><path class="cls-2" d="M37.57,819.71a.33.33,0,0,0,0-.65.33.33,0,0,0,0,.65Z"/><rect class="cls-1" x="56.78" y="858.59" width="1.66" height="1.72"/><path class="cls-2" d="M57.61,860.32a.87.87,0,0,0,0-1.73.87.87,0,0,0,0,1.73Z"/><rect class="cls-1" x="89.65" y="901.39" width="1.14" height="1.18"/><path class="cls-2" d="M90.22,902.58a.6.6,0,0,0,0-1.19.6.6,0,0,0,0,1.19Z"/><rect class="cls-1" x="151.78" y="936" width="0.84" height="0.87"/><path class="cls-2" d="M152.2,936.86a.43.43,0,0,0,0-.86.43.43,0,0,0,0,.86Z"/><rect class="cls-1" x="205.12" y="979.59" width="0.95" height="0.98"/><path class="cls-2" d="M205.59,980.57a.49.49,0,0,0,0-1,.49.49,0,0,0,0,1Z"/><rect class="cls-1" x="247.89" y="995.38" width="1.63" height="1.69"/><path class="cls-2" d="M248.71,997.07a.85.85,0,0,0,0-1.69.85.85,0,0,0,0,1.69Z"/><rect class="cls-1" x="307.98" y="1029.74" width="1.65" height="1.71"/><path class="cls-2" d="M308.8,1031.45a.86.86,0,0,0,0-1.71.86.86,0,0,0,0,1.71Z"/><rect class="cls-1" x="400.23" y="1044.28" width="1.37" height="1.42"/><path class="cls-2" d="M400.91,1045.7a.71.71,0,0,0,0-1.42.71.71,0,0,0,0,1.42Z"/><rect class="cls-1" x="461.75" y="1074.67" width="0.6" height="0.62"/><path class="cls-2" d="M462.05,1075.29a.31.31,0,0,0,0-.62.31.31,0,0,0,0,.62Z"/><rect class="cls-1" x="1032.25" y="1060.69" width="1.22" height="1.26"/><path class="cls-2" d="M1032.86,1062a.63.63,0,0,0,0-1.26.63.63,0,0,0,0,1.26Z"/><rect class="cls-1" x="1084.91" y="1071.81" width="0.63" height="0.65"/><path class="cls-2" d="M1085.22,1072.46a.33.33,0,0,0,0-.65.33.33,0,0,0,0,.65Z"/><rect class="cls-1" x="1120.52" y="1039.29" width="1.18" height="1.22"/><path class="cls-2" d="M1121.11,1040.52a.62.62,0,0,0,0-1.23.62.62,0,0,0,0,1.23Z"/><rect class="cls-1" x="1373.59" y="266.81" width="1.32" height="1.37"/><path class="cls-2" d="M1374.25,268.18a.69.69,0,0,0,0-1.37.69.69,0,0,0,0,1.37Z"/><rect class="cls-1" x="1444.34" y="239.18" width="1" height="1.04"/><path class="cls-2" d="M1444.84,240.22a.52.52,0,0,0,0-1,.52.52,0,0,0,0,1Z"/></svg>