<svg xmlns="http://www.w3.org/2000/svg" viewBox="0 0 413 478.11"><defs><style>.cls-1{fill:none;stroke:#8b8b8c;stroke-miterlimit:10;}.cls-2{fill:#1d1d1b;}</style></defs><title>4</title><g id="Livello_2" data-name="Livello 2"><g id="Livello_6" data-name="Livello 6"><path class="cls-1" d="M145.34,440c-15,20.12-35.7,34.05-58.73,37-42.32,5.46-78-27.91-84.9-77l35.22-3.95c6.24,25.73,26.2,42.66,49.68,39.82,14.09-1.71,26.79-10.23,35.94-22.59"/><polygon class="cls-1" points="133.83 145.18 133.83 145.16 134.7 144.05 133.83 145.18"/><path class="cls-1" d="M410.66,354.09C404.73,400.89,373.79,440,336,444.9c-21.08,2.71-40.34-5.73-54.48-21.66l-.19-.29c-18.39,20.49-41.69,34.37-67.26,37.66S164.52,456,145.33,440l-22.91-26.54c-13.65-21.76-21.74-49.57-21.74-80.61,0-57,27.16-108.44,65.88-134v46.92c-19.81,20-32.73,50.57-32.73,83.73,0,55.63,36.24,96.34,80.22,91,33.69-4.08,62.08-34,73-72.43-.07,1.09-.08,2.17-.08,3.27,0,33.31,21.54,57.72,47.85,54.54.19,0,.4,0,.59-.09a5.9,5.9,0,0,0,.59-.06c21.12-2.55,38.8-22.84,44.27-48.24Z"/><path class="cls-1" d="M240.8,318.61c0,18.55-11.94,34.88-26.74,36.48s-27-12.26-27-31,12.13-35.1,27-36.51S240.8,300.06,240.8,318.61Z"/><path class="cls-1" d="M322.63,132.64c0,75.29-48,140.82-108.57,146.48-62,5.8-113.37-53.13-113.37-131.75S152.06,3,214.06.57C274.59-1.81,322.63,57.34,322.63,132.64Z"/><path class="cls-1" d="M322.63,308.73c0,76.15-48,144.08-108.57,151.88-62,8-113.37-49.85-113.37-129.36s51.37-147.78,113.37-152.36C274.59,174.41,322.63,232.58,322.63,308.73Z"/><path class="cls-1" d="M291.85,313.41c0,53.95-34.54,101.87-77.79,107.1-44,5.33-80.22-35.39-80.22-91s36.22-103.72,80.22-107.34C257.31,218.58,291.85,259.47,291.85,313.41Z"/><path class="cls-1" d="M412.5,337.65c0,53.78-34.25,101.8-77.16,107.33-43.66,5.62-79.61-34.73-79.61-90.21s36-103.69,79.61-107.59C378.25,243.34,412.5,283.87,412.5,337.65Z"/><path class="cls-1" d="M287,348.09a75.4,75.4,0,0,1,4.16-21.88A126.66,126.66,0,0,1,287,348.09Z"/><path class="cls-1" d="M335.39,405.81c25.77-3.51,46.37-32.36,46.37-64.8,0-32.7-20.91-57.16-47-54.63a40.72,40.72,0,0,0-12.18,3.17"/><path class="cls-1" d="M170,364.12c0,56.43-37,106.93-83.38,112.91C39.4,483.12.5,440.89.5,382.62s38.9-109,86.11-113.2C133,265.27,170,307.7,170,364.12Z"/><path class="cls-1" d="M137.3,367.69c0,34.31-22.57,64.85-50.69,68.25-28.42,3.44-51.69-22.1-51.69-57.07s23.27-65.6,51.69-68.36C114.73,307.77,137.3,333.39,137.3,367.69Z"/><path class="cls-1" d="M291.85,134.68c0,53.95-34.54,100.64-77.79,104.35-44,3.77-80.22-38.22-80.22-93.86S170.06,42.74,214.06,40.66C257.31,38.63,291.85,80.73,291.85,134.68Z"/><path class="cls-1" d="M240.8,318.61c0,18.55-11.94,34.88-26.74,36.48s-27-12.26-27-31,12.13-35.1,27-36.51S240.8,300.06,240.8,318.61Z"/><path class="cls-2" d="M322.62,132.64V289.55c-14,6-25.55,19.66-31.43,36.66a123.21,123.21,0,0,0,.65-12.79V134.69c0-54-34.53-96.06-77.79-94-44,2.07-80.2,48.85-80.22,104.49l-33.15,42.12v-39.9C100.68,68.76,152.05,3,214.05.57,274.59-1.8,322.62,57.35,322.62,132.64Z"/></g></g></svg>