<svg xmlns="http://www.w3.org/2000/svg" viewBox="0 0 413 478.05"><defs><style>.cls-1{fill:none;stroke:#1d1d1b;stroke-miterlimit:10;stroke-dasharray:12;}.cls-2{fill:#8b8b8c;}.cls-3{fill:#1d1d1b;}</style></defs><title>2</title><g id="Livello_2" data-name="Livello 2"><g id="Livello_4" data-name="Livello 4"><path class="cls-1" d="M145.34,440c-15,20.11-35.7,34-58.73,37-42.32,5.46-78-27.91-84.9-76.95l35.22-3.95c6.24,25.73,26.2,42.66,49.68,39.82,14.09-1.71,26.79-10.23,35.94-22.59"/><path class="cls-1" d="M145.33,440c19.19,16,43.06,23.89,68.73,20.58s48.87-17.16,67.25-37.65l.19.29c14.13,15.94,33.4,24.37,54.48,21.65,37.81-4.87,68.76-44,74.69-90.79l-30.43,3.42c-5.47,25.4-23.14,45.68-44.26,48.23-12.86,1.56-24.56-3.74-33.06-13.61l-.21-.17a176.26,176.26,0,0,0,19.92-81.67V132.62c0-75.29-48-134.43-108.57-132C152.06,3,100.69,68.75,100.69,147.35v39.9l34-43.23"/><path class="cls-1" d="M133.84,145.15c0-55.62,36.22-102.42,80.22-104.49,43.25-2,77.79,40.06,77.79,94V313.37c0,53.94-34.54,101.84-77.79,107.08-44,5.33-80.22-35.38-80.22-91,0-33.14,12.91-63.7,32.72-83.72V198.81c-38.72,25.59-65.87,77-65.87,134,0,31,8.08,58.85,21.73,80.6"/><path class="cls-2" d="M216.12,287.43v1c13.28,0,23.68,13.23,23.68,30.13,0,18-11.59,33.94-25.85,35.49a21.15,21.15,0,0,1-2.24.12c-6.39,0-12.34-3-16.74-8.54S188,332.35,188,324c0-18.21,11.72-34.14,26.12-35.51.65-.06,1.32-.09,2-.09v-1m0,0c-.67,0-1.36,0-2.05.09-14.9,1.42-27,17.77-27,36.51,0,17.75,10.88,31.14,24.68,31.14a20.82,20.82,0,0,0,2.35-.13c14.8-1.6,26.74-17.93,26.74-36.48,0-17.68-10.84-31.14-24.69-31.13Z"/><path class="cls-1" d="M322.63,132.62c0,75.28-48,140.8-108.57,146.46-62,5.8-113.37-53.12-113.37-131.73S152.06,3,214.06.57C274.59-1.81,322.63,57.33,322.63,132.62Z"/><path class="cls-1" d="M412.5,337.61c0,53.77-34.25,101.77-77.16,107.3-43.66,5.63-79.61-34.72-79.61-90.2s36-103.67,79.61-107.57C378.25,243.3,412.5,283.83,412.5,337.61Z"/><path class="cls-1" d="M381.75,341c0,32.69-20.91,61.72-46.95,64.87C308.49,409,287,384.62,287,351.31s21.54-62.42,47.85-65C360.84,283.8,381.75,308.27,381.75,341Z"/><path class="cls-1" d="M170,364.07C170,420.49,133,471,86.61,477,39.4,483.05.5,440.83.5,382.57s38.9-109,86.11-113.19C133,265.23,170,307.66,170,364.07Z"/><path class="cls-1" d="M137.3,367.64c0,34.3-22.57,64.83-50.69,68.24-28.42,3.44-51.69-22.1-51.69-57.07s23.27-65.58,51.69-68.35C114.73,307.73,137.3,333.34,137.3,367.64Z"/><path class="cls-1" d="M291.85,134.66c0,53.94-34.54,100.63-77.79,104.33-44,3.78-80.22-38.21-80.22-93.84S170.06,42.73,214.06,40.66C257.31,38.62,291.85,80.72,291.85,134.66Z"/><path class="cls-3" d="M240.8,318.56c0,18.55-11.94,34.88-26.74,36.48s-27-12.26-27-31,12.13-35.09,27-36.51S240.8,300,240.8,318.56Z"/><path class="cls-3" d="M275.41,198.15l-18.26,36.63c21,15.73,34.69,44.51,34.69,78.59,0,53.94-34.53,101.84-77.79,107.08-44,5.33-80.22-35.38-80.22-91,0-35.14,14.52-67.38,36.39-87.22l-19-34.3c-30.36,28.15-50.53,73.61-50.53,123.28,0,79.51,51.37,137.33,113.37,129.34,60.54-7.8,108.57-75.7,108.57-151.85C322.62,261.14,304,220.78,275.41,198.15Z"/></g></g></svg>