<svg xmlns="http://www.w3.org/2000/svg" viewBox="0 0 1332.21 220.92"><defs><style>.cls-1{fill:#fff;}</style></defs><title>another_one</title><g id="Livello_2" data-name="Livello 2"><g id="Livello_1-2" data-name="Livello 1"><path class="cls-1" d="M351.84,150.37a11.64,11.64,0,1,0,11.49,11.49A11.49,11.49,0,0,0,351.84,150.37Z"/><path class="cls-1" d="M988.63,150.37a11.64,11.64,0,1,0,11.49,11.49A11.49,11.49,0,0,0,988.63,150.37Z"/><path class="cls-1" d="M101,106.05v15a57.82,57.82,0,0,0-42.13-18,58.92,58.92,0,0,0,0,117.83,57.82,57.82,0,0,0,42.13-18v18h17.38V106.05ZM59.51,204.12c-23.57,0-42.42-18.85-42.42-41.82a42.18,42.18,0,0,1,42.42-42.12C82.18,120.18,101,139,101,162.3,101,185.27,82.18,204.12,59.51,204.12Z"/><path class="cls-1" d="M210.9,103.09a50.16,50.16,0,0,0-34.47,13.25V106.05H159.05V220.92h17.38V154.34c0-17.67,14.14-34.16,33.58-34.16,20.91,0,34.47,15.31,34.47,37.41v63.33h17.38V154.34C261.86,123.72,236.81,103.09,210.9,103.09Z"/><path class="cls-1" d="M385,113.31l-9.42,14a42.29,42.29,0,0,1,18.57,35c0,23-18.85,41.82-41.54,41.82-23.56,0-42.42-18.85-42.42-41.82a41.9,41.9,0,0,1,18.64-34.91l-9.64-14.31A58.92,58.92,0,0,0,352,220.92c32.4,0,58.61-26.51,58.61-58.91A59,59,0,0,0,385,113.31Z"/><path class="cls-1" d="M494.25,123.42V106.05H470.67V58.91H453.3v47.14H429.74v17.37H453.3V177c0,18.56,3.84,28.58,17.37,43.89l12.09-11.78c-9.42-10.31-12.09-18.27-12.09-35.94V123.42Z"/><path class="cls-1" d="M584.37,103.09a50.2,50.2,0,0,0-34.47,13.25V0H532.52V220.92H549.9V154.34c0-17.67,14.14-34.16,33.58-34.16,20.91,0,34.47,15.31,34.47,37.41v63.33h17.38V154.34C635.33,123.72,610.28,103.09,584.37,103.09Z"/><path class="cls-1" d="M784.07,162c0-32.4-26.22-58.92-58.62-58.92A58.92,58.92,0,1,0,767,203.54l-12.09-12.09a40.18,40.18,0,0,1-29.16,12.38,41.88,41.88,0,0,1-41.53-34.17h99.27A63.24,63.24,0,0,0,784.07,162Zm-99.27-9.43A42.39,42.39,0,0,1,726,120.18c19.45,0,35.94,13.85,40.36,32.4Z"/><path class="cls-1" d="M832.37,120.47V106.05H815V220.92h17.38v-59.2c0-20,15.62-41.54,42.13-41.54V103.09C862.12,103.09,845,107.22,832.37,120.47Z"/><path class="cls-1" d="M1021.45,113.31l-9.41,14a42.29,42.29,0,0,1,18.56,35c0,23-18.85,41.82-41.54,41.82-23.55,0-42.4-18.85-42.4-41.82a42,42,0,0,1,18.63-34.93l-9.64-14.29a58.92,58.92,0,0,0,32.83,107.84c32.4,0,58.61-26.51,58.61-58.91A59,59,0,0,0,1021.45,113.31Z"/><path class="cls-1" d="M1132.51,103.09a50.15,50.15,0,0,0-34.46,13.25V106.05h-17.38V220.92h17.38V154.34c0-17.67,14.13-34.16,33.58-34.16,20.91,0,34.46,15.31,34.46,37.41v63.33h17.38V154.34C1183.47,123.72,1158.43,103.09,1132.51,103.09Z"/><path class="cls-1" d="M1332.21,162c0-32.4-26.22-58.92-58.62-58.92a58.92,58.92,0,1,0,41.54,100.45l-12.07-12.09a40.25,40.25,0,0,1-29.16,12.38,41.89,41.89,0,0,1-41.54-34.17h99.26A61.22,61.22,0,0,0,1332.21,162ZM1233,152.58a42.37,42.37,0,0,1,41.24-32.4c19.43,0,35.93,13.85,40.35,32.4Z"/></g></g></svg>