<svg xmlns="http://www.w3.org/2000/svg" viewBox="0 0 253.9 220.92"><defs><style>.cls-1{fill:#fff;}</style></defs><title>oh</title><g id="Livello_2" data-name="Livello 2"><g id="Livello_1-2" data-name="Livello 1"><path class="cls-1" d="M91.74,113.22l-9.42,14A42.27,42.27,0,0,1,101,162.3c0,23-18.85,41.82-41.54,41.82-23.55,0-42.4-18.85-42.4-41.82a41.9,41.9,0,0,1,18.36-34.73l-9.64-14.32a58.93,58.93,0,0,0,33.1,107.67c32.4,0,58.61-26.51,58.61-58.91A59,59,0,0,0,91.74,113.22Z"/><path class="cls-1" d="M202.94,103.09a50.15,50.15,0,0,0-34.46,13.25V0H151.1V220.92h17.38V154.34c0-17.67,14.13-34.16,33.58-34.16,20.91,0,34.46,15.31,34.46,37.41v63.33H253.9V154.34C253.9,123.72,228.86,103.09,202.94,103.09Z"/><path class="cls-1" d="M58.76,150.37a11.64,11.64,0,1,0,11.49,11.49A11.5,11.5,0,0,0,58.76,150.37Z"/></g></g></svg>