<svg xmlns="http://www.w3.org/2000/svg" viewBox="0 0 410.14 476.99"><defs><style>.cls-1{fill:none;stroke:#8b8b8c;stroke-miterlimit:10}.cls-2{fill:#8b8b8c}.cls-3{fill:#1d1d1b}</style></defs><title>1</title><g id="Livello_2" data-name="Livello 2"><g id="Livello_3" data-name="Livello 3"><path d="M144.17,439c-14.93,20.06-35.54,34-58.46,36.91C43.59,481.34,8.1,448,1.2,399.11l35.06-3.94c6.21,25.68,26.08,42.58,49.45,39.75,14-1.7,26.67-10.2,35.78-22.53" class="cls-1"/><path d="M144.16,439c19.1,16,42.86,23.85,68.41,20.56s48.65-17.11,66.95-37.56l.19.29C293.78,438.21,313,446.63,334,443.92c37.64-4.85,68.46-43.89,74.36-90.58L378,356.75c-5.45,25.34-23,45.57-44.07,48.12-12.8,1.55-24.45-3.75-32.92-13.59l-.21-.17a176.19,176.19,0,0,0,19.84-81.5V132.35C320.66,57.23,272.83-1.8,212.57.57,150.85,3,99.72,68.59,99.72,147v39.81l33.86-43.12" class="cls-1"/><path d="M132.72,144.83c0-55.5,36.05-102.19,79.85-104.26,43.06-2,77.44,40,77.44,93.82V312.72c0,53.83-34.38,101.63-77.44,106.84-43.8,5.3-79.85-35.33-79.85-90.83,0-33.07,12.85-63.57,32.57-83.54V198.38c-38.54,25.52-65.57,76.81-65.57,133.71,0,31,8,58.72,21.63,80.43" class="cls-1"/><path d="M214.62,286.82v1c13.22,0,23.58,13.21,23.58,30.07,0,18-11.55,33.87-25.74,35.41a20.78,20.78,0,0,1-2.22.12c-6.36,0-12.28-3-16.66-8.52s-6.92-13.26-6.92-21.56c0-18.17,11.67-34.06,26-35.43.65-.06,1.31-.09,2-.09v-1m0,0a20.18,20.18,0,0,0-2,.1c-14.83,1.41-26.91,17.72-26.91,36.42,0,17.72,10.84,31.08,24.58,31.08a20.34,20.34,0,0,0,2.33-.13c14.74-1.6,26.63-17.89,26.63-36.4,0-17.64-10.8-31.07-24.59-31.07Z" class="cls-2"/><path d="M320.66,132.35c0,75.13-47.83,140.51-108.09,146.14-61.72,5.78-112.85-53-112.85-131.47S150.85,3,212.57.57C272.83-1.8,320.66,57.23,320.66,132.35Z" class="cls-1"/><path d="M338.89,246.39v1c19.1,0,36.81,9.11,49.87,25.65s20.38,39.35,20.38,63.9c0,25.79-7.89,51-22.21,71S353.54,440.39,333.19,443a62.14,62.14,0,0,1-7.91.51c-19,0-36.7-9-49.74-25.43-13.21-16.61-20.48-39.39-20.48-64.12,0-26.52,8.21-52.22,23.13-72.37s34.45-32.11,55.21-34c1.83-.17,3.67-.25,5.48-.25v-1m0,0c-1.84,0-3.7.08-5.57.25-43.46,3.89-79.25,52-79.25,107.33,0,51.92,31.46,90.55,71.22,90.55a62.55,62.55,0,0,0,8-.52c42.73-5.5,76.83-53.4,76.83-107.06,0-51.32-31.18-90.55-71.26-90.55Z" class="cls-2"/><path d="M336.44,285.58v1c11.42,0,22,5.44,29.83,15.32s12.25,23.62,12.25,38.38c0,32.08-20.57,60.67-45.86,63.74a39.35,39.35,0,0,1-4.45.27c-11.4,0-22-5.42-29.78-15.24-7.93-10-12.29-23.64-12.29-38.47,0-32.69,21-61.32,46.73-63.83a35.69,35.69,0,0,1,3.57-.17v-1m0,0q-1.81,0-3.66.18c-26.2,2.54-47.64,31.58-47.64,64.82,0,31.29,19,54.71,43.07,54.71a39.46,39.46,0,0,0,4.57-.28c25.92-3.14,46.74-32.11,46.74-64.73,0-31.07-18.88-54.7-43.08-54.7Z" class="cls-2"/><path d="M91.9,269.5c20.63,0,39.75,9.55,53.83,26.87s22,41.2,22,66.92c0,27.06-8.52,53.55-24,74.6s-36.12,34.2-58.13,37a69.09,69.09,0,0,1-8.82.57c-20.56,0-39.62-9.45-53.68-26.62C8.84,431.47,1,407.62,1,381.7c0-27.85,8.89-54.87,25-76.08s37.28-33.83,59.76-35.84c2-.18,4.09-.28,6.11-.28h0m0-1c-2.05,0-4.11.1-6.19.28C38.71,273,0,323.57,0,381.7c0,54.41,33.9,94.79,76.76,94.79a69.89,69.89,0,0,0,8.95-.58c46.16-5.94,83-56.33,83-112.62,0-53.75-33.58-94.79-76.8-94.79Z" class="cls-2"/><path d="M89.78,309.58v1h0c12.33,0,23.76,5.7,32.19,16.06s13.19,24.73,13.19,40.2c0,33.68-22.24,63.78-49.57,67.09a41.51,41.51,0,0,1-5,.3c-12.3,0-23.72-5.67-32.14-16S35.26,393.51,35.26,378c0-34.34,22.67-64.48,50.54-67.19,1.32-.13,2.66-.19,4-.19v-1m0,0a39.69,39.69,0,0,0-4.06.2C57.42,312.53,34.26,343.07,34.26,378c0,32.79,20.44,57.27,46.37,57.27a41.71,41.71,0,0,0,5.08-.31c28-3.39,50.45-33.85,50.45-68.08,0-32.55-20.32-57.26-46.39-57.26Z" class="cls-2"/><path d="M215.56,41.5c41.19,0,73.45,40.8,73.45,92.89,0,25.86-7.95,50.81-22.37,70.25S233,235.73,212.48,237.49c-1.78.16-3.58.23-5.35.23-41.17,0-73.41-40.8-73.41-92.89,0-26.58,8.27-52,23.29-71.56s34.69-30.71,55.61-31.7c1,0,2-.07,2.94-.07h0m0-1c-1,0-2,0-3,.07-43.8,2.07-79.85,48.76-79.85,104.26,0,53.19,33.1,93.89,74.41,93.89,1.8,0,3.61-.07,5.44-.23C255.63,234.8,290,188.22,290,134.39c0-52.58-32.8-93.89-74.46-93.89Z" class="cls-2"/><path d="M239.2,317.89c0,18.51-11.89,34.8-26.63,36.4s-26.91-12.25-26.91-31,12.08-35,26.91-36.42S239.2,299.38,239.2,317.89Z" class="cls-3"/><path d="M212.57,178.48c-61.71,4.57-112.85,72.65-112.85,152s51.14,137,112.85,129.1c60.26-7.77,108.09-75.52,108.09-151.51S272.83,174,212.57,178.48Zm0,241.08c-43.8,5.3-79.85-35.32-79.85-90.83s36.05-103.47,79.85-107.08C255.64,218.1,290,258.89,290,312.72S255.64,414.35,212.57,419.56Z" class="cls-3"/></g></g></svg>