<svg xmlns="http://www.w3.org/2000/svg" viewBox="0 0 412 478.05"><defs><style>.cls-1{fill:none;stroke:#8b8b8c;stroke-miterlimit:10;}.cls-2{fill:#8b8b8c;}.cls-3{fill:#1d1d1b;}</style></defs><title>2</title><g id="Livello_2" data-name="Livello 2"><g id="Livello_4" data-name="Livello 4"><path class="cls-1" d="M144.84,440c-15,20.11-35.7,34-58.73,37-42.32,5.46-78-27.91-84.9-76.95l35.22-3.95c6.24,25.73,26.2,42.66,49.68,39.82,14.09-1.71,26.79-10.23,35.94-22.59"/><path class="cls-1" d="M144.83,440c19.19,16,43.06,23.89,68.73,20.58s48.87-17.16,67.25-37.65l.19.29c14.13,15.94,33.4,24.37,54.48,21.65,37.81-4.87,68.76-44,74.69-90.79l-30.43,3.42c-5.47,25.4-23.14,45.68-44.26,48.23-12.86,1.56-24.56-3.74-33.06-13.61l-.21-.17a176.26,176.26,0,0,0,19.92-81.67V132.62c0-75.29-48-134.43-108.57-132C151.56,3,100.19,68.75,100.19,147.35v39.9l34-43.23"/><path class="cls-1" d="M133.34,145.15c0-55.62,36.22-102.42,80.22-104.49,43.25-2,77.79,40.06,77.79,94V313.37c0,53.94-34.54,101.84-77.79,107.08-44,5.33-80.22-35.38-80.22-91,0-33.14,12.91-63.7,32.72-83.72V198.81c-38.72,25.59-65.87,77-65.87,134,0,31,8.08,58.85,21.73,80.6"/><path class="cls-2" d="M215.62,287.43v1c13.28,0,23.68,13.23,23.68,30.13,0,18-11.59,33.94-25.85,35.49a21.15,21.15,0,0,1-2.24.12c-6.39,0-12.34-3-16.74-8.54s-6.94-13.28-6.94-21.6c0-18.21,11.72-34.14,26.12-35.51.65-.06,1.32-.09,2-.09v-1m0,0c-.67,0-1.36,0-2.05.09-14.9,1.42-27,17.77-27,36.51,0,17.75,10.88,31.14,24.68,31.14a20.82,20.82,0,0,0,2.35-.13c14.8-1.6,26.74-17.93,26.74-36.48,0-17.68-10.84-31.14-24.69-31.13Z"/><path class="cls-1" d="M322.13,132.62c0,75.28-48,140.8-108.57,146.46-62,5.8-113.37-53.12-113.37-131.73S151.56,3,213.56.57C274.09-1.81,322.13,57.33,322.13,132.62Z"/><path class="cls-2" d="M340.45,247.89c19.19,0,37,9.13,50.09,25.7S411,313,411,337.61c0,25.84-7.92,51.11-22.3,71.16s-33.54,32.52-54,35.15a62.82,62.82,0,0,1-8,.52c-19.12,0-36.86-9.05-49.95-25.48-13.26-16.65-20.57-39.47-20.57-64.25,0-26.57,8.25-52.33,23.24-72.53s34.6-32.18,55.46-34c1.84-.17,3.69-.25,5.52-.25h0m0-1c-1.84,0-3.71.08-5.6.25-43.66,3.9-79.61,52.09-79.61,107.57,0,52,31.6,90.73,71.52,90.73a63.63,63.63,0,0,0,8.09-.53c42.91-5.53,77.16-53.53,77.16-107.3,0-51.42-31.3-90.72-71.56-90.72Z"/><path class="cls-2" d="M338,286.16v1c11.47,0,22.11,5.45,30,15.35s12.3,23.66,12.3,38.45c0,32.15-20.66,60.81-46.07,63.88a37.53,37.53,0,0,1-4.48.27c-11.44,0-22.07-5.42-29.91-15.27s-12.34-23.67-12.34-38.53c0-32.76,21.06-61.46,46.95-64,1.19-.12,2.4-.17,3.59-.17v-1m0,0a35.33,35.33,0,0,0-3.69.18c-26.31,2.55-47.85,31.65-47.85,65,0,31.35,19.07,54.8,43.25,54.8a37.73,37.73,0,0,0,4.6-.28c26-3.15,46.95-32.18,46.95-64.87,0-31.13-19-54.81-43.26-54.8Z"/><path class="cls-2" d="M92.34,269.1v1c20.73,0,39.93,9.56,54.08,26.92s22.07,41.28,22.07,67.05c0,27.12-8.56,53.67-24.11,74.77S108.1,473.12,86,476a70,70,0,0,1-8.88.58c-20.65,0-39.8-9.48-53.92-26.69C8.88,432.44,1,408.54,1,382.57c0-27.91,8.93-55,25.15-76.26s37.46-33.92,60.05-35.94c2-.18,4.11-.27,6.14-.27v-1m0,0c-2.06,0-4.13.09-6.23.28C38.9,273.6,0,324.31,0,382.57c0,54.51,34.05,95,77.1,95a70.85,70.85,0,0,0,9-.59c46.38-6,83.38-56.47,83.38-112.89,0-53.86-33.73-95-77.15-95Z"/><path class="cls-2" d="M90.21,311.26c12.39,0,23.87,5.72,32.34,16.09s13.25,24.79,13.25,40.29c0,33.75-22.35,63.92-49.81,67.25a42,42,0,0,1-5,.3c-12.36,0-23.83-5.68-32.29-16s-13.29-24.8-13.29-40.38c0-34.41,22.78-64.63,50.78-67.35,1.34-.13,2.68-.2,4-.2h0m0-1c-1.35,0-2.71.07-4.09.2-28.42,2.77-51.69,33.38-51.69,68.35,0,32.86,20.53,57.38,46.58,57.38a42.2,42.2,0,0,0,5.11-.31c28.12-3.41,50.69-33.94,50.69-68.24,0-32.62-20.41-57.38-46.6-57.38Z"/><path class="cls-2" d="M216.56,41.59c41.38,0,73.79,40.88,73.79,93.07,0,25.92-8,50.92-22.48,70.41s-33.8,31.16-54.4,32.93c-1.79.15-3.61.23-5.39.23-41.35,0-73.74-40.88-73.74-93.08,0-26.64,8.31-52.11,23.4-71.72s34.85-30.78,55.86-31.77c1,0,2-.07,3-.07h0m0-1c-1,0-2,0-3,.07-44,2.07-80.22,48.87-80.22,104.49,0,53.3,33.25,94.08,74.74,94.08,1.81,0,3.64-.08,5.48-.24,43.25-3.7,77.79-50.39,77.79-104.33,0-52.68-33-94.07-74.79-94.07Z"/><path class="cls-3" d="M240.3,318.56c0,18.55-11.94,34.88-26.74,36.48s-27-12.26-27-31,12.13-35.09,27-36.51S240.3,300,240.3,318.56Z"/><path class="cls-3" d="M274.91,198.15l-18.26,36.63c21,15.73,34.69,44.51,34.69,78.59,0,53.94-34.53,101.84-77.79,107.08-44,5.33-80.22-35.38-80.22-91,0-35.14,14.52-67.38,36.39-87.22l-19-34.3c-30.36,28.15-50.53,73.61-50.53,123.28,0,79.51,51.37,137.33,113.37,129.34,60.54-7.8,108.57-75.7,108.57-151.85C322.12,261.14,303.5,220.78,274.91,198.15Z"/></g></g></svg>