<svg xmlns="http://www.w3.org/2000/svg" viewBox="0 0 413 479.19"><defs><style>.cls-1{fill:none;stroke:#8b8b8c}.cls-1,.cls-2{stroke-miterlimit:10}.cls-2,.cls-3{fill:#1d1d1b}.cls-2{stroke:#010101}.cls-4{opacity:.42}.cls-5{fill:#010101}</style></defs><title>3</title><g id="Livello_2" data-name="Livello 2"><g id="Livello_5" data-name="Livello 5"><path d="M144.62,440.08c19.19,16,43.07,23.9,68.74,20.59s48.88-17.16,67.27-37.66l.19.28c14.14,15.95,33.41,24.38,54.5,21.66,37.81-4.87,68.78-44,74.7-90.81l-30.43,3.42c-5.47,25.41-23.15,45.69-44.27,48.24-12.87,1.56-24.57-3.74-33.07-13.61L302,392A176.11,176.11,0,0,0,322,310.32V132.65c0-75.3-48-134.46-108.6-132.08C151.35,3,100,68.77,100,147.4v39.9l34-43.24" class="cls-1"/><path d="M133.84,146.24c0-55.64,36.22-102.45,80.22-104.53,43.25-2.05,77.79,40.05,77.79,94V314.44c0,53.95-34.54,101.87-77.79,107.12-44,5.33-80.22-35.37-80.22-91,0-33.14,12.91-63.71,32.72-83.74V199.89c-38.72,25.6-65.87,77-65.87,134,0,31.05,8.08,58.86,21.73,80.61" class="cls-1"/><path d="M322.63,133.66c0,75.29-48,140.83-108.57,146.51-62,5.81-113.37-53.11-113.37-131.73S152.06,4.06,214.06,1.61C274.59-.78,322.63,58.37,322.63,133.66Z" class="cls-1"/><path d="M412.5,338.66c0,53.78-34.25,101.8-77.16,107.34-43.66,5.63-79.61-34.71-79.61-90.2s36-103.69,79.61-107.6C378.25,244.35,412.5,284.88,412.5,338.66Z" class="cls-1"/><path d="M381.75,342c0,32.69-20.91,61.74-46.95,64.89C308.49,410.1,287,385.71,287,352.39s21.54-62.43,47.85-65C360.84,284.86,381.75,309.33,381.75,342Z" class="cls-1"/><path d="M170,365.18c0,56.42-37,106.94-83.38,112.92C39.4,484.2.5,442,.5,383.71s38.9-109,86.11-113.22C133,266.33,170,308.76,170,365.18Z" class="cls-1"/><path d="M137.3,368.75c0,34.31-22.57,64.85-50.69,68.26C58.19,440.46,34.92,414.93,34.92,380s23.27-65.6,51.69-68.37C114.73,308.84,137.3,334.45,137.3,368.75Z" class="cls-1"/><path d="M291.85,135.71c0,53.95-34.54,100.65-77.79,104.36-44,3.78-80.22-38.2-80.22-93.83S170.06,43.79,214.06,41.71C257.31,39.66,291.85,81.76,291.85,135.71Z" class="cls-1"/><path d="M145.33,441.08v0l0-.34C158.62,452,174.14,459.28,191,461.6A89.42,89.42,0,0,1,145.33,441.08Z" class="cls-2"/><path d="M200.24,462.36c-2,0-3.94-.17-5.88-.36C196.3,462.17,198.27,462.3,200.24,462.36Z" class="cls-2"/><path d="M380.24,358.53c-5.47,25.39-23.14,45.69-44.26,48.25-12.86,1.56-24.56-3.75-33.07-13.61l-.21-.17a176.18,176.18,0,0,0,19.93-81.68v-1.55c0-47.6-18.65-88-47.28-110.59l-18.14,36.74c20.93,15.71,34.64,44.47,34.64,78.53,0,54-34.55,101.87-77.79,107.12C183.39,425.29,156.49,406.63,143,376a112.78,112.78,0,0,1-9.15-45.46A126.57,126.57,0,0,1,140,291.62v0c6.27-19.47,17-36.39,30.59-48.56l-18.91-34.42a137.64,137.64,0,0,0-14.12,15.13c-22.6,28.06-36.83,66.86-36.83,108.58,0,32.09,8.44,60.79,22.65,83l-.8-.94c-9.16,12.37-21.85,20.91-35.94,22.61-23.47,2.85-43.44-14.09-49.69-39.81l-35.21,4c6.93,49,42.58,82.41,84.9,76.94,23-3,43.71-16.92,58.72-37v0l-1.07-1.24,1.05.9c1.57,1.32,3.15,2.58,4.77,3.79.57.42,1.16.84,1.73,1.24s1,.73,1.49,1.05c.8.56,1.6,1.1,2.43,1.62.62.41,1.25.8,1.91,1.19s1.08.65,1.63,1,1.13.64,1.7,1l.15.08a1.6,1.6,0,0,0,.19.11c.82.47,1.66.9,2.5,1.3a3,3,0,0,0,.5.26c.7.36,1.4.72,2.12,1a8.56,8.56,0,0,0,.88.4c.71.33,1.45.65,2.19,1a2.52,2.52,0,0,0,.34.15c.94.39,1.88.76,2.83,1.12s1.88.68,2.82,1a.87.87,0,0,0,.22,0l.36.13c.85.29,1.71.55,2.57.8,1,.29,2,.57,3,.84,2,.53,4.09,1,6.17,1.33,1.05.19,2.08.35,3.13.49s2.24.28,3.38.39c1.94.18,3.91.3,5.88.37.66,0,1.32,0,2,0s1.6,0,2.4,0c.47,0,.94,0,1.43,0h.07l2.22-.12c.62,0,1.23-.07,1.84-.13s1-.09,1.49-.15c.79-.08,1.58-.16,2.39-.27s1.61-.23,2.4-.35c.47-.06,1-.14,1.43-.23a1.35,1.35,0,0,0,.34-.06c.47-.08.93-.16,1.4-.27s1.16-.21,1.75-.35,1.29-.27,1.92-.42,1.39-.32,2.1-.5c1.38-.37,2.77-.75,4.14-1.18l2-.64,2-.71c.8-.29,1.6-.58,2.4-.89q2.59-1,5.14-2.16c1.18-.53,2.34-1.09,3.51-1.66.36-.2.71-.37,1.06-.54A121.92,121.92,0,0,0,281.3,424l.19.29c14.14,15.93,33.4,24.37,54.49,21.64,37.8-4.87,68.76-44,74.69-90.82Z" class="cls-3"/><g class="cls-4"><path d="M216.12,288.51v1c13.28,0,23.68,13.24,23.68,30.14,0,18-11.59,34-25.85,35.49a18.82,18.82,0,0,1-2.24.13c-6.4,0-12.34-3-16.74-8.54S188,333.45,188,325.13c0-18.21,11.72-34.15,26.12-35.52a18.7,18.7,0,0,1,2-.1v-1m0,0a20.43,20.43,0,0,0-2.06.1c-14.9,1.42-27,17.77-27,36.52,0,17.75,10.88,31.14,24.68,31.14a23.45,23.45,0,0,0,2.35-.13c14.8-1.61,26.74-17.94,26.74-36.49,0-17.68-10.84-31.14-24.68-31.14Z" class="cls-5"/></g><path d="M211.71,355.77c-13.56,0-24.18-13.46-24.18-30.64,0-18.46,11.92-34.62,26.57-36a19.65,19.65,0,0,1,2-.1c13.56,0,24.19,13.46,24.19,30.64,0,18.27-11.8,34.42-26.31,36A22,22,0,0,1,211.71,355.77Z" class="cls-3"/><path d="M216.12,288.51v1c13.28,0,23.68,13.24,23.68,30.14,0,18-11.59,34-25.85,35.49a18.82,18.82,0,0,1-2.24.13c-6.4,0-12.34-3-16.74-8.54S188,333.45,188,325.13c0-18.21,11.72-34.15,26.12-35.52a18.7,18.7,0,0,1,2-.1v-1m0,0a20.43,20.43,0,0,0-2.06.1c-14.9,1.42-27,17.77-27,36.52,0,17.75,10.88,31.14,24.68,31.14a23.45,23.45,0,0,0,2.35-.13c14.8-1.61,26.74-17.94,26.74-36.49,0-17.68-10.84-31.14-24.68-31.14Z" class="cls-5"/></g></g></svg>