<svg xmlns="http://www.w3.org/2000/svg" viewBox="0 0 412 477.61"><defs><style>.cls-1{fill:none;stroke:#8b8b8c;stroke-miterlimit:10;}.cls-2{fill:#8b8b8c;}.cls-3{fill:#1d1d1b;}</style></defs><title>5</title><g id="Livello_2" data-name="Livello 2"><g id="Livello_7" data-name="Livello 7"><path class="cls-1" d="M144.84,439.51c-15,20.12-35.7,34.05-58.73,37-42.32,5.46-78-27.91-84.9-77l35.22-3.95c6.24,25.73,26.2,42.66,49.68,39.82,14.09-1.7,26.79-10.23,35.94-22.59"/><path class="cls-2" d="M217.09,0V1c28.13,0,54.35,13.5,73.81,38s30.23,57.63,30.23,93.14c0,36.28-11.15,71.36-31.39,98.76s-47.35,44-76.28,46.73c-2.76.26-5.55.39-8.3.39-58.3,0-104-57.61-104-131.15,0-37.71,11.8-73.71,33.22-101.35S183.84,2.24,213.6,1.07C214.75,1,215.92,1,217.08,1V0m0,0c-1.17,0-2.35,0-3.52.07-62,2.43-113.37,68.19-113.37,146.8,0,75,46.8,132.15,105,132.15,2.77,0,5.58-.13,8.4-.4,60.53-5.66,108.57-71.19,108.57-146.48C322.13,58.3,276,0,217.08,0Z"/><path class="cls-2" d="M340.45,247.42c19.19,0,37,9.13,50.09,25.71s20.46,39.42,20.46,64c0,25.85-7.92,51.12-22.3,71.18s-33.54,32.52-54,35.15a61,61,0,0,1-8,.52c-19.12,0-36.86-9.05-49.95-25.48-13.26-16.66-20.57-39.47-20.57-64.25,0-26.58,8.25-52.35,23.24-72.55s34.6-32.18,55.46-34.05c1.84-.16,3.69-.25,5.52-.25h0m0-1c-1.84,0-3.71.09-5.6.26-43.66,3.9-79.61,52.1-79.61,107.59,0,52,31.6,90.73,71.52,90.73a63.59,63.59,0,0,0,8.09-.52C377.75,439,412,390.93,412,337.15c0-51.42-31.3-90.73-71.56-90.73Z"/><path class="cls-2" d="M338,285.7v1c11.47,0,22.11,5.45,30,15.35s12.3,23.67,12.3,38.46c0,32.15-20.66,60.82-46.07,63.89a37.53,37.53,0,0,1-4.48.27c-11.44,0-22.07-5.42-29.91-15.27s-12.34-23.68-12.34-38.54c0-32.77,21.06-61.47,46.95-64,1.19-.11,2.4-.17,3.59-.17v-1m0,0q-1.83,0-3.69.18c-26.31,2.56-47.85,31.66-47.85,65,0,31.35,19.07,54.81,43.25,54.81a37.73,37.73,0,0,0,4.6-.28c26-3.15,46.95-32.19,46.95-64.88,0-31.14-19-54.81-43.26-54.81Z"/><path class="cls-2" d="M92.34,268.64v1c20.73,0,39.93,9.56,54.08,26.92s22.07,41.29,22.07,67.06c0,27.13-8.56,53.68-24.11,74.78S108.1,472.69,86,475.54a70,70,0,0,1-8.88.57c-20.65,0-39.8-9.47-53.92-26.68C8.88,432,1,408.1,1,382.12c0-27.91,8.93-55,25.15-76.26s37.46-33.93,60.05-35.95c2-.18,4.11-.27,6.14-.27v-1m0,0c-2.06,0-4.13.09-6.23.28C38.9,273.14,0,323.85,0,382.12c0,54.52,34.05,95,77.1,95a70.82,70.82,0,0,0,9-.58c46.38-6,83.38-56.48,83.38-112.91,0-53.87-33.73-95-77.15-95Z"/><path class="cls-2" d="M90.21,309.81v1c12.39,0,23.87,5.71,32.34,16.09s13.25,24.79,13.25,40.29c0,33.76-22.35,63.93-49.81,67.26a42,42,0,0,1-5,.3c-12.36,0-23.83-5.68-32.29-16-8.57-10.47-13.29-24.81-13.29-40.38C35.42,344,58.2,313.73,86.2,311c1.34-.13,2.68-.19,4-.19v-1m0,0a40.42,40.42,0,0,0-4.09.2c-28.42,2.76-51.69,33.38-51.69,68.36,0,32.86,20.53,57.38,46.58,57.38a42.2,42.2,0,0,0,5.11-.31c28.12-3.4,50.69-33.94,50.69-68.25,0-32.62-20.41-57.38-46.6-57.38Z"/><path class="cls-2" d="M216.56,41.09c41.38,0,73.79,40.89,73.79,93.09,0,25.92-8,50.93-22.48,70.42s-33.8,31.17-54.4,32.93c-1.79.16-3.61.23-5.39.23-41.35,0-73.74-40.89-73.74-93.09,0-26.64,8.31-52.11,23.4-71.73s34.85-30.79,55.86-31.78c1,0,2-.07,3-.07h0m0-1c-1,0-2,0-3,.07-44,2.08-80.22,48.88-80.22,104.51,0,53.31,33.25,94.09,74.74,94.09,1.81,0,3.64-.07,5.48-.23,43.25-3.71,77.79-50.4,77.79-104.35,0-52.69-33-94.09-74.79-94.09Z"/><path class="cls-2" d="M215.62,287v1c13.28,0,23.68,13.24,23.68,30.14,0,18-11.59,33.95-25.85,35.49a21.15,21.15,0,0,1-2.24.12c-6.39,0-12.34-3-16.74-8.54s-6.94-13.28-6.94-21.6c0-18.21,11.72-34.15,26.12-35.52.65-.06,1.32-.09,2-.09v-1m0,0a20.38,20.38,0,0,0-2.05.1c-14.9,1.41-27,17.76-27,36.51,0,17.75,10.88,31.14,24.68,31.14a20.82,20.82,0,0,0,2.35-.13c14.8-1.6,26.74-17.93,26.74-36.48,0-17.69-10.84-31.14-24.69-31.14Z"/><polygon class="cls-3" points="133.33 144.67 133.33 144.65 134.19 143.54 133.33 144.67"/><path class="cls-3" d="M410.18,353.59c-5.93,46.79-36.9,85.93-74.7,90.8-21.09,2.72-40.35-5.7-54.48-21.65l-.2-.29c-13.57,15.14-29.83,26.66-47.68,32.95l-2.05.7-2.06.65c-.83.25-1.67.51-2.52.74-.54.16-1.09.29-1.62.44h0c-.72.17-1.41.35-2.13.5s-1.15.28-1.74.39-1.24.27-1.84.37-1,.18-1.43.27l-.33.06-1.43.23-2.4.35c-1,.12-1.92.22-2.86.32s-1.9.16-2.86.23c-.74,0-1.5.08-2.24.11h0c-.49,0-1,0-1.48,0-.78,0-1.57,0-2.35,0s-1.31,0-2,0c-.49,0-1,0-1.47,0-1.49-.07-3-.17-4.43-.32s-2.63-.28-3.94-.47c-1-.15-2-.3-2.93-.48a90.16,90.16,0,0,1-42.13-20l-1.07-1.24-20.32-23.53L121.93,413c-13.67-21.76-21.75-49.58-21.75-80.61v-1.62c0-.35,0-.71,0-1.06.74-49.07,21.54-93.77,52.4-121a119.36,119.36,0,0,1,13.46-10.35v46.92c-.62.63-1.24,1.26-1.84,1.91-1.8,1.92-3.54,4-5.23,6.06-.22.28-.46.57-.68.87s-.47.6-.69.89c-.65.83-1.29,1.7-1.91,2.56s-1,1.48-1.56,2.23c-.4.57-.77,1.14-1.15,1.73-.64.95-1.24,1.92-1.84,2.92-.47.74-.92,1.49-1.37,2.25,0,.09-.1.18-.15.3-.41.7-.81,1.39-1.19,2.11-.09.16-.17.32-.26.47-.39.72-.79,1.47-1.15,2.2s-.87,1.69-1.28,2.54-.81,1.7-1.21,2.57-.77,1.74-1.15,2.6-.75,1.79-1.11,2.67a120.89,120.89,0,0,0-4.18,12.34c-.21.73-.42,1.48-.61,2.2s-.38,1.47-.55,2.2-.38,1.53-.54,2.32-.31,1.36-.43,2.05-.33,1.51-.45,2.27c-.11.49-.19,1-.28,1.45s-.17,1-.24,1.5-.21,1.22-.3,1.83c-.05.28-.08.58-.12.87-.1.65-.19,1.3-.28,1.95s-.13,1.11-.19,1.67c-.17,1.5-.31,3-.43,4.52-.05.65-.09,1.3-.12,2-.1,1.45-.16,2.93-.19,4.4,0,1.11,0,2.21,0,3.32,0,55.64,36.23,96.35,80.22,91,43.26-5.23,77.79-53.14,77.79-107.09V134.18c0-53.95-34.53-96.05-77.79-94-44,2.08-80.21,48.85-80.22,104.49l-33.15,42.13v-39.9C100.18,68.26,151.55,2.5,213.55.07,274.1-2.31,322.12,56.84,322.12,132.14V309.78a176.1,176.1,0,0,1-19.92,81.69l.21.18c8.51,9.85,20.21,15.16,33.07,13.6,21.12-2.56,38.8-22.83,44.26-48.24Z"/><path class="cls-2" d="M215.62,287v1c13.28,0,23.68,13.24,23.68,30.14,0,18-11.59,33.95-25.85,35.49a21.15,21.15,0,0,1-2.24.12c-6.39,0-12.34-3-16.74-8.54s-6.94-13.28-6.94-21.6c0-18.21,11.72-34.15,26.12-35.52.65-.06,1.32-.09,2-.09v-1m0,0a20.38,20.38,0,0,0-2.05.1c-14.9,1.41-27,17.76-27,36.51,0,17.75,10.88,31.14,24.68,31.14a20.82,20.82,0,0,0,2.35-.13c14.8-1.6,26.74-17.93,26.74-36.48,0-17.69-10.84-31.14-24.69-31.14Z"/><path class="cls-3" d="M291.34,214a106.19,106.19,0,0,0-17.24-16.9L256,233.81c21.35,15.61,35.38,44.65,35.38,79.11,0,53.95-34.53,101.86-77.79,107.09-44,5.33-80.22-35.38-80.22-91,0-1.11,0-2.21,0-3.32,0-1.47.09-2.95.19-4.4,0-.66.07-1.31.12-2,.12-1.51.26-3,.43-4.52.06-.56.13-1.11.19-1.67s.18-1.3.28-1.95c0-.29.07-.59.12-.87.09-.61.18-1.22.3-1.83s.15-1,.24-1.5.17-1,.28-1.45c.12-.76.27-1.52.45-2.27s.27-1.37.43-2.05.35-1.56.54-2.32.36-1.47.55-2.2.4-1.47.61-2.2a120.89,120.89,0,0,1,4.18-12.34q.54-1.32,1.11-2.67c.38-.86.76-1.73,1.15-2.6s.8-1.72,1.21-2.57.83-1.7,1.28-2.54.76-1.48,1.15-2.2c.09-.15.17-.31.26-.47.38-.72.78-1.41,1.19-2.11.05-.12.12-.21.15-.3.45-.76.9-1.51,1.37-2.25.6-1,1.2-2,1.84-2.92.38-.59.75-1.16,1.15-1.73.52-.75,1-1.5,1.56-2.23s1.26-1.73,1.91-2.56c.22-.29.45-.61.69-.89s.46-.59.68-.87c1.69-2.11,3.43-4.14,5.23-6.06.6-.65,1.22-1.3,1.84-1.91V233.19l-13.46-24.5c-30.86,27.23-51.66,71.93-52.4,121,0,.35,0,.71,0,1.06v1.62c.28,31.93,8.94,60.39,23.26,82.38a113.9,113.9,0,0,0,20.32,23.53A90.49,90.49,0,0,0,187,459.5c1,.18,1.95.33,2.93.48,1.31.19,2.61.34,3.94.47s2.94.25,4.43.32c.49,0,1,0,1.47,0,.68,0,1.33,0,2,0s1.57,0,2.35,0c.49,0,1,0,1.48,0h0c.74,0,1.5-.06,2.24-.11,1-.07,1.9-.14,2.86-.23s1.9-.2,2.86-.32l2.4-.35,1.43-.23.33-.06c.47-.09,1-.17,1.43-.27s1.22-.22,1.84-.37,1.16-.25,1.74-.39,1.41-.33,2.13-.5h0c.53-.15,1.08-.28,1.62-.44.85-.23,1.69-.49,2.52-.74l2.06-.65,2.05-.7,89-147.17C322.12,270.52,310.42,237.35,291.34,214Z"/></g></g></svg>