<svg xmlns="http://www.w3.org/2000/svg" viewBox="0 0 413 478.11"><defs><style>.cls-1{fill:none;stroke:#1d1d1b;stroke-miterlimit:10;stroke-dasharray:12;}.cls-2{fill:#1d1d1b;}</style></defs><title>5</title><g id="Livello_2" data-name="Livello 2"><g id="Livello_7" data-name="Livello 7"><path class="cls-1" d="M145.34,440c-15,20.12-35.7,34.05-58.73,37-42.32,5.46-78-27.91-84.9-77l35.22-3.95c6.24,25.73,26.2,42.66,49.68,39.82,14.09-1.71,26.79-10.23,35.94-22.59"/><path class="cls-1" d="M322.63,132.64c0,75.29-48,140.82-108.57,146.48-62,5.8-113.37-53.13-113.37-131.75S152.06,3,214.06.57C274.59-1.81,322.63,57.34,322.63,132.64Z"/><path class="cls-1" d="M412.5,337.65c0,53.78-34.25,101.8-77.16,107.33-43.66,5.62-79.61-34.73-79.61-90.21s36-103.69,79.61-107.59C378.25,243.34,412.5,283.87,412.5,337.65Z"/><path class="cls-1" d="M381.75,341c0,32.69-20.91,61.73-46.95,64.88C308.49,409.08,287,384.68,287,351.36s21.54-62.42,47.85-65C360.84,283.84,381.75,308.32,381.75,341Z"/><path class="cls-1" d="M170,364.12c0,56.43-37,106.93-83.38,112.91C39.4,483.12.5,440.89.5,382.62s38.9-109,86.11-113.2C133,265.27,170,307.7,170,364.12Z"/><path class="cls-1" d="M137.3,367.69c0,34.31-22.57,64.85-50.69,68.25-28.42,3.44-51.69-22.1-51.69-57.07s23.27-65.6,51.69-68.36C114.73,307.77,137.3,333.39,137.3,367.69Z"/><path class="cls-1" d="M291.85,134.68c0,53.95-34.54,100.64-77.79,104.35-44,3.77-80.22-38.22-80.22-93.86S170.06,42.74,214.06,40.66C257.31,38.63,291.85,80.73,291.85,134.68Z"/><polygon class="cls-2" points="133.83 145.17 133.83 145.15 134.69 144.04 133.83 145.17"/><path class="cls-2" d="M410.68,354.09c-5.93,46.79-36.9,85.93-74.7,90.8-21.09,2.72-40.35-5.7-54.48-21.65l-.2-.29c-13.57,15.14-29.83,26.66-47.68,32.95l-2.05.7-2.06.65c-.83.25-1.67.51-2.52.74-.54.16-1.09.29-1.62.44h0l-2.13.5c-.58.14-1.15.28-1.74.39s-1.24.27-1.84.37-1,.18-1.43.27l-.33.06-1.43.23-2.4.35c-1,.12-1.92.22-2.86.32s-1.9.16-2.86.23c-.74,0-1.5.08-2.24.11h0c-.49,0-1,0-1.48,0-.78,0-1.57,0-2.35,0s-1.31,0-2,0c-.49,0-1,0-1.47,0-1.49-.07-3-.17-4.43-.32s-2.63-.28-3.94-.47c-1-.15-2-.3-2.93-.48a90.16,90.16,0,0,1-42.13-20l-1.07-1.24-20.32-23.53-1.51-1.77c-13.67-21.76-21.75-49.58-21.75-80.61v-1.62c0-.35,0-.71,0-1.06.74-49.07,21.54-93.77,52.4-121a119.36,119.36,0,0,1,13.46-10.35v46.92c-.62.63-1.24,1.26-1.84,1.91-1.8,1.92-3.54,4-5.23,6.06-.22.28-.46.57-.68.87s-.47.6-.69.89c-.65.83-1.29,1.7-1.91,2.56s-1,1.48-1.56,2.23c-.4.57-.77,1.14-1.15,1.73-.64.95-1.24,1.92-1.84,2.92-.47.74-.92,1.49-1.37,2.25,0,.09-.1.18-.15.3-.41.7-.81,1.39-1.19,2.11-.09.16-.17.32-.26.47-.39.72-.79,1.47-1.15,2.2s-.87,1.69-1.28,2.54-.81,1.7-1.21,2.57-.77,1.74-1.15,2.6-.75,1.78-1.11,2.67A120.89,120.89,0,0,0,138.61,295c-.21.73-.42,1.48-.61,2.2s-.38,1.47-.55,2.2-.38,1.53-.54,2.32-.31,1.36-.43,2.05-.33,1.51-.45,2.27c-.11.49-.19,1-.28,1.45s-.17,1-.24,1.5-.21,1.22-.3,1.83c-.05.28-.08.58-.12.87-.1.65-.19,1.3-.28,1.95s-.13,1.11-.19,1.67c-.17,1.5-.31,3-.43,4.52-.05.65-.09,1.3-.12,2-.1,1.45-.16,2.93-.19,4.4,0,1.11,0,2.21,0,3.32,0,55.64,36.23,96.35,80.22,91,43.26-5.23,77.79-53.14,77.79-107.09V134.68c0-53.95-34.53-96.05-77.79-94-44,2.08-80.21,48.85-80.22,104.49l-33.15,42.13v-39.9C100.68,68.76,152.05,3,214.05.57,274.6-1.81,322.62,57.34,322.62,132.64V310.28A176.1,176.1,0,0,1,302.7,392l.21.18c8.51,9.85,20.21,15.16,33.07,13.6,21.12-2.56,38.8-22.83,44.26-48.24Z"/><path class="cls-1" d="M240.8,318.61c0,18.55-11.94,34.88-26.74,36.48s-27-12.26-27-31,12.13-35.1,27-36.51S240.8,300.06,240.8,318.61Z"/><path class="cls-2" d="M291.84,214.47a105.78,105.78,0,0,0-17.24-16.9l-18.14,36.74c21.35,15.61,35.38,44.65,35.38,79.11,0,53.95-34.53,101.86-77.79,107.09-44,5.33-80.22-35.38-80.22-91,0-1.11,0-2.21,0-3.32,0-1.47.09-2.95.19-4.4,0-.66.07-1.31.12-2,.12-1.51.26-3,.43-4.52.06-.56.13-1.11.19-1.67s.18-1.3.28-1.95c0-.29.07-.59.12-.87.09-.61.18-1.22.3-1.83s.15-1,.24-1.5.17-1,.28-1.45c.12-.76.27-1.52.45-2.27s.27-1.37.43-2.05.35-1.56.54-2.32.36-1.47.55-2.2.4-1.47.61-2.2a120.89,120.89,0,0,1,4.18-12.34c.36-.89.73-1.77,1.11-2.67s.76-1.73,1.15-2.6.8-1.72,1.21-2.57.83-1.7,1.28-2.54.76-1.48,1.15-2.2c.09-.15.17-.31.26-.47.38-.72.78-1.41,1.19-2.11.05-.12.12-.21.15-.3.45-.76.9-1.51,1.37-2.25.6-1,1.2-2,1.84-2.92.38-.59.75-1.16,1.15-1.73.52-.75,1-1.5,1.56-2.23s1.26-1.73,1.91-2.56c.22-.29.45-.61.69-.89s.46-.59.68-.87c1.69-2.11,3.43-4.14,5.23-6.06.6-.65,1.22-1.3,1.84-1.91V233.69l-13.46-24.5c-30.86,27.23-51.66,71.93-52.4,121,0,.35,0,.71,0,1.06v1.62c.28,31.93,8.94,60.39,23.26,82.38a113.9,113.9,0,0,0,20.32,23.53A90.49,90.49,0,0,0,187.46,460c1,.18,1.95.33,2.93.48,1.31.19,2.61.34,3.94.47s2.94.25,4.43.32c.49,0,1,0,1.47,0,.68,0,1.33,0,2,0s1.57,0,2.35,0c.49,0,1,0,1.48,0h0c.74,0,1.5-.06,2.24-.11,1-.07,1.9-.14,2.86-.23s1.9-.2,2.86-.32l2.4-.35,1.43-.23.33-.06c.47-.09,1-.17,1.43-.27s1.22-.22,1.84-.37,1.16-.25,1.74-.39l2.13-.5h0c.53-.15,1.08-.28,1.62-.44.85-.23,1.69-.49,2.52-.74l2.06-.65,2.05-.7,89-147.17C322.62,271,310.92,237.85,291.84,214.47Z"/></g></g></svg>