<svg xmlns="http://www.w3.org/2000/svg" viewBox="0 0 413 479.22"><defs><style>.cls-1{fill:none;stroke:#8b8b8c;stroke-miterlimit:10}.cls-2{fill:#010101}</style></defs><title>6</title><g id="Livello_2" data-name="Livello 2"><g id="Livello_8" data-name="Livello 8"><path d="M145.34,440.61c-15,20.12-35.7,34.06-58.73,37-42.32,5.46-78-27.9-84.9-76.94l35.22-4c6.24,25.73,26.2,42.66,49.68,39.81,14.09-1.71,26.79-10.23,35.94-22.6" class="cls-1"/><path d="M145.33,440.62c19.19,16,43.06,23.88,68.73,20.57s48.87-17.17,67.25-37.67l.19.29c14.13,15.94,33.4,24.36,54.48,21.64,37.81-4.88,68.76-44,74.69-90.82l-30.43,3.43c-5.47,25.41-23.14,45.69-44.26,48.25-12.86,1.56-24.56-3.74-33.06-13.61l-.21-.17a176.34,176.34,0,0,0,19.92-81.69V133.2c0-75.3-48-134.44-108.57-132C152.06,3.6,100.69,69.36,100.69,148v39.9l34-43.24" class="cls-1"/><path d="M133.84,145.77c0-55.63,36.22-102.44,80.22-104.52,43.25-2,77.79,40.05,77.79,94V314c0,53.95-34.54,101.87-77.79,107.11-44,5.34-80.22-35.37-80.22-91,0-33.15,12.91-63.72,32.72-83.74V199.43c-38.72,25.6-65.87,77-65.87,134,0,31,8.08,58.86,21.73,80.61" class="cls-1"/><path d="M240.8,319.19c0,18.55-11.94,34.88-26.74,36.49s-27-12.27-27-31,12.13-35.1,27-36.52S240.8,300.63,240.8,319.19Z" class="cls-1"/><path d="M322.63,133.2c0,75.29-48,140.83-108.57,146.51-62,5.81-113.37-53.11-113.37-131.73S152.06,3.6,214.06,1.15C274.59-1.24,322.63,57.9,322.63,133.2Z" class="cls-1"/><path d="M322.63,310.84c0,75.3-48,142.54-108.57,150.35-62,8-113.37-49.1-113.37-127.72s51.37-146.2,113.37-150.84C274.59,178.1,322.63,235.55,322.63,310.84Z" class="cls-1"/><path d="M291.85,314c0,53.95-34.54,101.87-77.79,107.11-44,5.34-80.22-35.37-80.22-91s36.22-103.72,80.22-107.36C257.31,219.16,291.85,260,291.85,314Z" class="cls-1"/><path d="M412.5,338.2c0,53.78-34.25,101.79-77.16,107.33-43.66,5.64-79.61-34.7-79.61-90.19s36-103.69,79.61-107.61C378.25,243.89,412.5,284.42,412.5,338.2Z" class="cls-1"/><path d="M381.75,341.56c0,32.69-20.91,61.73-46.95,64.89C308.49,409.64,287,385.24,287,351.93s21.54-62.43,47.85-65C360.84,284.4,381.75,308.86,381.75,341.56Z" class="cls-1"/><path d="M170,364.72c0,56.42-37,106.93-83.38,112.92C39.4,483.73.5,441.52.5,383.25S39.4,274.26,86.61,270C133,265.87,170,308.29,170,364.72Z" class="cls-1"/><path d="M137.3,368.29c0,34.3-22.57,64.85-50.69,68.26C58.19,440,34.92,414.46,34.92,379.49s23.27-65.6,51.69-68.37C114.73,308.38,137.3,334,137.3,368.29Z" class="cls-1"/><path d="M291.85,135.25c0,53.94-34.54,100.65-77.79,104.36-44,3.78-80.22-38.2-80.22-93.84S170.06,43.33,214.06,41.25C257.31,39.2,291.85,81.3,291.85,135.25Z" class="cls-1"/><path d="M240.8,319.19c0,18.55-11.94,34.88-26.74,36.49s-27-12.27-27-31,12.13-35.1,27-36.52S240.8,300.63,240.8,319.19Z" class="cls-1"/><path d="M214.75,355.6c-14.89,1.62-27-12.25-27-31s12.13-35.1,27-36.52,26.75,12.48,26.75,31S229.56,354,214.75,355.6Z" class="cls-2"/><path d="M412.23,353.44l-.15,1.2c-6.12,48.26-37.63,86.87-75.44,91.76-20.44,2.64-39.9-5-54.75-21.54C262.67,446,239.5,459,214.75,462.15s-48.59-3.72-68.63-20.22c-15.73,20.77-36.55,33.82-58.78,36.7C45,484.1,8.72,451.48,1.57,400.89l-.18-1.25,37-4.16.18.76c6.24,25.78,26.38,41.85,48.79,39.14,13.1-1.59,25.36-9.16,34.67-21.34-14-22.66-21.47-50.53-21.47-80.55,0-55.39,26.26-108.53,66.38-135.06l1.21-.8v49.12l-.34.35c-20.22,20.43-32.37,51.46-32.37,82.83,0,54.94,35.89,95.28,79.33,90,42.72-5.17,77-52.67,77-105.95V135.26c0-53.29-34.24-95-77-93-43.15,2-78.86,47.86-79.33,102.33l.61.73-35.49,45.13V148C100.54,68.9,152.4,2.52,214.75.07c60.88-2.39,109.35,57.3,109.35,133V310.69a177.26,177.26,0,0,1-19.64,81.49c8.77,9.89,20.14,14.48,32.18,13,20.19-2.45,38-22,43.51-47.42l.16-.75Z" class="cls-2"/></g></g></svg>