<svg xmlns="http://www.w3.org/2000/svg" viewBox="0 0 244.17 219"><defs><style>.cls-1{fill:#fff;}</style></defs><title>loog_white</title><g id="Livello_2" data-name="Livello 2"><g id="Livello_1-2" data-name="Livello 1"><circle class="cls-1" cx="121.93" cy="152.5" r="16"/><path class="cls-1" d="M244.17,178l-.1.58a48.5,48.5,0,0,1-81.65,26.68,66.51,66.51,0,0,1-80.8.13A48.51,48.51,0,0,1,.1,178.58L0,178H20.43l.1.36A28.62,28.62,0,0,0,47.93,199a28.31,28.31,0,0,0,19.78-8A66.07,66.07,0,0,1,55.43,152.5,66.82,66.82,0,0,1,93.72,92.26l.71-.33V115l-.2.15a46.5,46.5,0,1,0,74.2,37.35v-86a46.5,46.5,0,0,0-93-.5l.35.36L55.43,86.19V66.5a66.5,66.5,0,0,1,133,0v86a66,66,0,0,1-12.16,38.34,28.52,28.52,0,0,0,47.38-12.48l.1-.36Z"/></g></g></svg>