<svg xmlns="http://www.w3.org/2000/svg" viewBox="0 0 1659.15 220.92"><defs><style>.cls-1{fill:#1d1d1b;}</style></defs><title>titolo</title><g id="Livello_2" data-name="Livello 2"><g id="Livello_1-2" data-name="Livello 1"><path class="cls-1" d="M91.74,113.22l-9.42,14A42.27,42.27,0,0,1,101,162.3c0,23-18.85,41.82-41.54,41.82-23.55,0-42.4-18.85-42.4-41.82a41.9,41.9,0,0,1,18.36-34.73l-9.64-14.32a58.93,58.93,0,0,0,33.1,107.67c32.4,0,58.61-26.51,58.61-58.91A59,59,0,0,0,91.74,113.22Z"/><path class="cls-1" d="M202.94,103.09a50.15,50.15,0,0,0-34.46,13.25V0H151.1V220.92h17.38V154.34c0-17.67,14.13-34.16,33.58-34.16,20.91,0,34.46,15.31,34.46,37.41v63.33H253.9V154.34C253.9,123.72,228.86,103.09,202.94,103.09Z"/><path class="cls-1" d="M294,197.65a11.64,11.64,0,1,0,11.49,11.49A11.5,11.5,0,0,0,294,197.65Z"/><path class="cls-1" d="M58.76,150.37a11.64,11.64,0,1,0,11.49,11.49A11.5,11.5,0,0,0,58.76,150.37Z"/><path class="cls-1" d="M678.77,150.37a11.64,11.64,0,1,0,11.49,11.49A11.5,11.5,0,0,0,678.77,150.37Z"/><path class="cls-1" d="M1315.56,150.37a11.64,11.64,0,1,0,11.49,11.49A11.5,11.5,0,0,0,1315.56,150.37Z"/><path class="cls-1" d="M428,106.05v15a57.84,57.84,0,0,0-42.13-18,58.92,58.92,0,1,0,0,117.83,57.84,57.84,0,0,0,42.13-18v18h17.38V106.05Zm-41.54,98.07c-23.57,0-42.42-18.85-42.42-41.82a42.18,42.18,0,0,1,42.42-42.12C409.12,120.18,428,139,428,162.3,428,185.27,409.12,204.12,386.44,204.12Z"/><path class="cls-1" d="M537.83,103.09a50.15,50.15,0,0,0-34.46,13.25V106.05H486V220.92h17.38V154.34c0-17.67,14.13-34.16,33.58-34.16,20.91,0,34.46,15.31,34.46,37.41v63.33h17.38V154.34C588.79,123.72,563.75,103.09,537.83,103.09Z"/><path class="cls-1" d="M711.89,113.31l-9.42,14a42.27,42.27,0,0,1,18.57,35c0,23-18.84,41.82-41.53,41.82-23.56,0-42.42-18.85-42.42-41.82a41.91,41.91,0,0,1,18.63-34.91l-9.64-14.31a58.92,58.92,0,0,0,32.85,107.84c32.4,0,58.6-26.51,58.6-58.91A59,59,0,0,0,711.89,113.31Z"/><path class="cls-1" d="M821.18,123.42V106.05H797.61V58.91H780.23v47.14H756.67v17.37h23.56V177c0,18.56,3.84,28.58,17.38,43.89l12.08-11.78c-9.42-10.31-12.08-18.27-12.08-35.94V123.42Z"/><path class="cls-1" d="M911.3,103.09a50.15,50.15,0,0,0-34.46,13.25V0H859.46V220.92h17.38V154.34c0-17.67,14.13-34.16,33.58-34.16,20.91,0,34.46,15.31,34.46,37.41v63.33h17.38V154.34C962.26,123.72,937.22,103.09,911.3,103.09Z"/><path class="cls-1" d="M1111,162c0-32.4-26.22-58.92-58.62-58.92a58.92,58.92,0,1,0,41.55,100.45l-12.08-12.09a40.18,40.18,0,0,1-29.16,12.38,41.9,41.9,0,0,1-41.54-34.17h99.27A63.24,63.24,0,0,0,1111,162Zm-99.26-9.43a42.38,42.38,0,0,1,41.24-32.4c19.44,0,35.93,13.85,40.36,32.4Z"/><path class="cls-1" d="M1159.3,120.47V106.05h-17.38V220.92h17.38v-59.2c0-20,15.62-41.54,42.13-41.54V103.09C1189.06,103.09,1172,107.22,1159.3,120.47Z"/><path class="cls-1" d="M1223.52,197.65A11.64,11.64,0,1,0,1235,209.14,11.5,11.5,0,0,0,1223.52,197.65Z"/><path class="cls-1" d="M1348.38,113.31l-9.4,14a42.3,42.3,0,0,1,18.55,35c0,23-18.84,41.82-41.53,41.82-23.56,0-42.41-18.85-42.41-41.82a41.94,41.94,0,0,1,18.64-34.93l-9.64-14.29a58.92,58.92,0,0,0,32.83,107.84c32.4,0,58.6-26.51,58.6-58.91A59,59,0,0,0,1348.38,113.31Z"/><path class="cls-1" d="M1459.45,103.09A50.16,50.16,0,0,0,1425,116.34V106.05H1407.6V220.92H1425V154.34c0-17.67,14.14-34.16,33.58-34.16,20.91,0,34.47,15.31,34.47,37.41v63.33h17.38V154.34C1510.41,123.72,1485.36,103.09,1459.45,103.09Z"/><path class="cls-1" d="M1659.15,162c0-32.4-26.22-58.92-58.62-58.92a58.92,58.92,0,1,0,41.53,100.45L1630,191.45a40.21,40.21,0,0,1-29.16,12.38,41.87,41.87,0,0,1-41.53-34.17h99.25A59.33,59.33,0,0,0,1659.15,162Zm-99.27-9.43a42.37,42.37,0,0,1,41.24-32.4c19.43,0,35.94,13.85,40.36,32.4Z"/></g></g></svg>